M48
; DRILL file {KiCad (6.0.8)} date Mon Nov 21 21:43:53 2022
; FORMAT={-:-/ absolute / inch / decimal}
; #@! TF.CreationDate,2022-11-21T21:43:53+01:00
; #@! TF.GenerationSoftware,Kicad,Pcbnew,(6.0.8)
; #@! TF.FileFunction,Plated,1,2,PTH
FMAT,2
INCH
; #@! TA.AperFunction,Plated,PTH,ViaDrill
T1C0.0157
; #@! TA.AperFunction,Plated,PTH,ComponentDrill
T2C0.0276
; #@! TA.AperFunction,Plated,PTH,ComponentDrill
T3C0.0315
; #@! TA.AperFunction,Plated,PTH,ComponentDrill
T4C0.0354
; #@! TA.AperFunction,Plated,PTH,ComponentDrill
T5C0.0374
; #@! TA.AperFunction,Plated,PTH,ComponentDrill
T6C0.0394
; #@! TA.AperFunction,Plated,PTH,ComponentDrill
T7C0.0433
; #@! TA.AperFunction,Plated,PTH,ComponentDrill
T8C0.0598
; #@! TA.AperFunction,Plated,PTH,ComponentDrill
T9C0.1260
%
G90
G05
T1
X3.293Y-1.8543
X3.305Y-1.7543
X3.399Y-1.6263
X3.515Y-1.7783
X4.131Y-2.6283
X4.1925Y-2.7948
T2
X2.2292Y-1.379
X2.2292Y-2.2977
X2.2292Y-2.757
X2.239Y-1.8383
X2.3292Y-1.379
X2.3292Y-2.2977
X2.3292Y-2.757
X2.339Y-1.8383
X3.436Y-1.7268
X3.436Y-1.9268
X3.591Y-1.6205
X3.591Y-1.8205
X3.615Y-3.4283
X3.615Y-3.6283
X3.9862Y-2.5577
X3.9862Y-2.7577
T3
X2.656Y-3.4299
X2.656Y-3.6268
X2.786Y-3.4299
X2.786Y-3.6268
X3.3465Y-2.1654
X3.3465Y-2.3622
X3.366Y-3.4299
X3.366Y-3.6268
X3.497Y-3.4299
X3.497Y-3.6268
X3.9764Y-2.8937
X3.9764Y-2.9921
T4
X3.806Y-3.6735
X3.806Y-3.7735
T5
X1.987Y-1.279
X1.987Y-1.3775
X1.987Y-1.4759
X1.987Y-1.7383
X1.987Y-1.8368
X1.987Y-1.9352
X1.987Y-2.1977
X1.987Y-2.2961
X1.987Y-2.3945
X1.987Y-2.657
X1.987Y-2.7554
X1.987Y-2.8538
X2.4409Y-0.9252
X2.4803Y-2.9439
X2.5394Y-0.9252
X2.5787Y-1.5696
X2.5787Y-1.9235
X2.5787Y-2.2774
X2.5787Y-2.6313
X2.5787Y-2.9439
X2.6378Y-0.9252
X2.6772Y-1.5696
X2.6772Y-1.9235
X2.6772Y-2.2774
X2.6772Y-2.6313
X2.6772Y-2.9439
X2.7362Y-0.9252
X2.7756Y-1.5696
X2.7756Y-1.9235
X2.7756Y-2.2774
X2.7756Y-2.6313
X2.7756Y-2.9439
X2.8346Y-0.9252
X2.874Y-1.5696
X2.874Y-1.9235
X2.874Y-2.2774
X2.874Y-2.6313
X2.874Y-2.9439
X2.9331Y-0.9252
X3.881Y-3.3383
X3.9794Y-3.3383
X4.0779Y-3.3383
X4.1763Y-3.3383
X4.2402Y-2.5669
X4.3297Y-2.8937
X4.3297Y-2.9921
X4.3297Y-3.0906
X4.3386Y-2.5669
X4.437Y-2.5669
X4.5354Y-2.5669
X4.6339Y-2.5669
X4.7012Y-2.8943
X4.7012Y-2.9928
X4.7012Y-3.0912
X4.7323Y-2.5669
T6
X3.1795Y-1.0213
X3.1795Y-1.1213
X3.1795Y-1.2213
X3.1795Y-1.3213
X3.1795Y-1.4213
X3.1795Y-1.5213
X3.1795Y-1.6213
X3.1795Y-1.7213
X3.1795Y-1.8213
X3.1795Y-1.9213
X3.1795Y-2.0213
X3.1795Y-2.1213
X3.1795Y-2.2213
X3.1795Y-2.3213
X3.1795Y-2.4213
X3.7795Y-1.0213
X3.7795Y-1.1213
X3.7795Y-1.2213
X3.7795Y-1.3213
X3.7795Y-1.4213
X3.7795Y-1.5213
X3.7795Y-1.6213
X3.7795Y-1.7213
X3.7795Y-1.8213
X3.7795Y-1.9213
X3.7795Y-2.0213
X3.7795Y-2.1213
X3.7795Y-2.2213
X3.7795Y-2.3213
X3.7795Y-2.4213
X4.3027Y-1.2743
X4.3027Y-1.3743
X4.3027Y-1.4743
X4.3027Y-1.5743
X4.3027Y-1.6743
X4.3685Y-2.0866
X4.3685Y-2.185
X4.4027Y-1.2743
X4.4027Y-1.3743
X4.4027Y-1.4743
X4.4027Y-1.5743
X4.4027Y-1.6743
X4.7397Y-2.0871
X4.7397Y-2.1856
T7
X2.165Y-3.2803
X2.565Y-3.2803
X2.976Y-3.4333
X3.076Y-3.4333
X3.176Y-3.4333
X3.3563Y-2.7067
X3.3563Y-2.8839
X3.6122Y-2.7067
X3.6122Y-2.8839
T8
X1.899Y-3.2203
X1.899Y-3.4203
T9
X1.891Y-3.6943
X1.893Y-0.9083
X4.723Y-0.9043
X4.723Y-3.6883
T0
M30
