%TF.GenerationSoftware,KiCad,Pcbnew,(6.0.8)*%
%TF.CreationDate,2022-11-21T21:43:47+01:00*%
%TF.ProjectId,WeatherStation_ArduinoNano_Shield,57656174-6865-4725-9374-6174696f6e5f,rev?*%
%TF.SameCoordinates,Original*%
%TF.FileFunction,Legend,Bot*%
%TF.FilePolarity,Positive*%
%FSLAX46Y46*%
G04 Gerber Fmt 4.6, Leading zero omitted, Abs format (unit mm)*
G04 Created by KiCad (PCBNEW (6.0.8)) date 2022-11-21 21:43:47*
%MOMM*%
%LPD*%
G01*
G04 APERTURE LIST*
%ADD10C,0.150000*%
G04 APERTURE END LIST*
D10*
X70023580Y-25058114D02*
X69023580Y-25058114D01*
X69023580Y-25296209D01*
X69071200Y-25439066D01*
X69166438Y-25534304D01*
X69261676Y-25581923D01*
X69452152Y-25629542D01*
X69595009Y-25629542D01*
X69785485Y-25581923D01*
X69880723Y-25534304D01*
X69975961Y-25439066D01*
X70023580Y-25296209D01*
X70023580Y-25058114D01*
X70023580Y-26581923D02*
X70023580Y-26010495D01*
X70023580Y-26296209D02*
X69023580Y-26296209D01*
X69166438Y-26200971D01*
X69261676Y-26105733D01*
X69309295Y-26010495D01*
X69118819Y-26962876D02*
X69071200Y-27010495D01*
X69023580Y-27105733D01*
X69023580Y-27343828D01*
X69071200Y-27439066D01*
X69118819Y-27486685D01*
X69214057Y-27534304D01*
X69309295Y-27534304D01*
X69452152Y-27486685D01*
X70023580Y-26915257D01*
X70023580Y-27534304D01*
X74049600Y-25662895D02*
X74001980Y-25567657D01*
X74001980Y-25424800D01*
X74049600Y-25281942D01*
X74144838Y-25186704D01*
X74240076Y-25139085D01*
X74430552Y-25091466D01*
X74573409Y-25091466D01*
X74763885Y-25139085D01*
X74859123Y-25186704D01*
X74954361Y-25281942D01*
X75001980Y-25424800D01*
X75001980Y-25520038D01*
X74954361Y-25662895D01*
X74906742Y-25710514D01*
X74573409Y-25710514D01*
X74573409Y-25520038D01*
X75001980Y-26139085D02*
X74001980Y-26139085D01*
X75001980Y-26710514D01*
X74001980Y-26710514D01*
X75001980Y-27186704D02*
X74001980Y-27186704D01*
X74001980Y-27424800D01*
X74049600Y-27567657D01*
X74144838Y-27662895D01*
X74240076Y-27710514D01*
X74430552Y-27758133D01*
X74573409Y-27758133D01*
X74763885Y-27710514D01*
X74859123Y-27662895D01*
X74954361Y-27567657D01*
X75001980Y-27424800D01*
X75001980Y-27186704D01*
X64994380Y-24956514D02*
X63994380Y-24956514D01*
X63994380Y-25194609D01*
X64042000Y-25337466D01*
X64137238Y-25432704D01*
X64232476Y-25480323D01*
X64422952Y-25527942D01*
X64565809Y-25527942D01*
X64756285Y-25480323D01*
X64851523Y-25432704D01*
X64946761Y-25337466D01*
X64994380Y-25194609D01*
X64994380Y-24956514D01*
X64994380Y-26480323D02*
X64994380Y-25908895D01*
X64994380Y-26194609D02*
X63994380Y-26194609D01*
X64137238Y-26099371D01*
X64232476Y-26004133D01*
X64280095Y-25908895D01*
X63994380Y-26813657D02*
X63994380Y-27432704D01*
X64375333Y-27099371D01*
X64375333Y-27242228D01*
X64422952Y-27337466D01*
X64470571Y-27385085D01*
X64565809Y-27432704D01*
X64803904Y-27432704D01*
X64899142Y-27385085D01*
X64946761Y-27337466D01*
X64994380Y-27242228D01*
X64994380Y-26956514D01*
X64946761Y-26861276D01*
X64899142Y-26813657D01*
X67483580Y-25108914D02*
X66483580Y-25108914D01*
X66483580Y-25347009D01*
X66531200Y-25489866D01*
X66626438Y-25585104D01*
X66721676Y-25632723D01*
X66912152Y-25680342D01*
X67055009Y-25680342D01*
X67245485Y-25632723D01*
X67340723Y-25585104D01*
X67435961Y-25489866D01*
X67483580Y-25347009D01*
X67483580Y-25108914D01*
X67483580Y-26632723D02*
X67483580Y-26061295D01*
X67483580Y-26347009D02*
X66483580Y-26347009D01*
X66626438Y-26251771D01*
X66721676Y-26156533D01*
X66769295Y-26061295D01*
X67483580Y-27585104D02*
X67483580Y-27013676D01*
X67483580Y-27299390D02*
X66483580Y-27299390D01*
X66626438Y-27204152D01*
X66721676Y-27108914D01*
X66769295Y-27013676D01*
X72081028Y-24885085D02*
X72081028Y-25646990D01*
X72461980Y-25266038D02*
X71700076Y-25266038D01*
X71461980Y-26599371D02*
X71461980Y-26123180D01*
X71938171Y-26075561D01*
X71890552Y-26123180D01*
X71842933Y-26218419D01*
X71842933Y-26456514D01*
X71890552Y-26551752D01*
X71938171Y-26599371D01*
X72033409Y-26646990D01*
X72271504Y-26646990D01*
X72366742Y-26599371D01*
X72414361Y-26551752D01*
X72461980Y-26456514D01*
X72461980Y-26218419D01*
X72414361Y-26123180D01*
X72366742Y-26075561D01*
X71461980Y-26932704D02*
X72461980Y-27266038D01*
X71461980Y-27599371D01*
X62505180Y-25007314D02*
X61505180Y-25007314D01*
X61505180Y-25245409D01*
X61552800Y-25388266D01*
X61648038Y-25483504D01*
X61743276Y-25531123D01*
X61933752Y-25578742D01*
X62076609Y-25578742D01*
X62267085Y-25531123D01*
X62362323Y-25483504D01*
X62457561Y-25388266D01*
X62505180Y-25245409D01*
X62505180Y-25007314D01*
X62505180Y-26531123D02*
X62505180Y-25959695D01*
X62505180Y-26245409D02*
X61505180Y-26245409D01*
X61648038Y-26150171D01*
X61743276Y-26054933D01*
X61790895Y-25959695D01*
X61505180Y-27150171D02*
X61505180Y-27245409D01*
X61552800Y-27340647D01*
X61600419Y-27388266D01*
X61695657Y-27435885D01*
X61886133Y-27483504D01*
X62124228Y-27483504D01*
X62314704Y-27435885D01*
X62409942Y-27388266D01*
X62457561Y-27340647D01*
X62505180Y-27245409D01*
X62505180Y-27150171D01*
X62457561Y-27054933D01*
X62409942Y-27007314D01*
X62314704Y-26959695D01*
X62124228Y-26912076D01*
X61886133Y-26912076D01*
X61695657Y-26959695D01*
X61600419Y-27007314D01*
X61552800Y-27054933D01*
X61505180Y-27150171D01*
X116510323Y-20631961D02*
X116367466Y-20679580D01*
X116129371Y-20679580D01*
X116034133Y-20631961D01*
X115986514Y-20584342D01*
X115938895Y-20489104D01*
X115938895Y-20393866D01*
X115986514Y-20298628D01*
X116034133Y-20251009D01*
X116129371Y-20203390D01*
X116319847Y-20155771D01*
X116415085Y-20108152D01*
X116462704Y-20060533D01*
X116510323Y-19965295D01*
X116510323Y-19870057D01*
X116462704Y-19774819D01*
X116415085Y-19727200D01*
X116319847Y-19679580D01*
X116081752Y-19679580D01*
X115938895Y-19727200D01*
X115510323Y-20679580D02*
X115510323Y-20012914D01*
X115510323Y-19679580D02*
X115557942Y-19727200D01*
X115510323Y-19774819D01*
X115462704Y-19727200D01*
X115510323Y-19679580D01*
X115510323Y-19774819D01*
X115034133Y-20679580D02*
X115034133Y-20012914D01*
X115034133Y-20108152D02*
X114986514Y-20060533D01*
X114891276Y-20012914D01*
X114748419Y-20012914D01*
X114653180Y-20060533D01*
X114605561Y-20155771D01*
X114605561Y-20679580D01*
X114605561Y-20155771D02*
X114557942Y-20060533D01*
X114462704Y-20012914D01*
X114319847Y-20012914D01*
X114224609Y-20060533D01*
X114176990Y-20155771D01*
X114176990Y-20679580D01*
X113700800Y-20012914D02*
X113700800Y-21012914D01*
X113700800Y-20060533D02*
X113605561Y-20012914D01*
X113415085Y-20012914D01*
X113319847Y-20060533D01*
X113272228Y-20108152D01*
X113224609Y-20203390D01*
X113224609Y-20489104D01*
X113272228Y-20584342D01*
X113319847Y-20631961D01*
X113415085Y-20679580D01*
X113605561Y-20679580D01*
X113700800Y-20631961D01*
X112653180Y-20679580D02*
X112748419Y-20631961D01*
X112796038Y-20536723D01*
X112796038Y-19679580D01*
X111891276Y-20631961D02*
X111986514Y-20679580D01*
X112176990Y-20679580D01*
X112272228Y-20631961D01*
X112319847Y-20536723D01*
X112319847Y-20155771D01*
X112272228Y-20060533D01*
X112176990Y-20012914D01*
X111986514Y-20012914D01*
X111891276Y-20060533D01*
X111843657Y-20155771D01*
X111843657Y-20251009D01*
X112319847Y-20346247D01*
X110700800Y-20393866D02*
X110224609Y-20393866D01*
X110796038Y-20679580D02*
X110462704Y-19679580D01*
X110129371Y-20679580D01*
X109796038Y-20679580D02*
X109796038Y-20012914D01*
X109796038Y-20203390D02*
X109748419Y-20108152D01*
X109700800Y-20060533D01*
X109605561Y-20012914D01*
X109510323Y-20012914D01*
X108748419Y-20679580D02*
X108748419Y-19679580D01*
X108748419Y-20631961D02*
X108843657Y-20679580D01*
X109034133Y-20679580D01*
X109129371Y-20631961D01*
X109176990Y-20584342D01*
X109224609Y-20489104D01*
X109224609Y-20203390D01*
X109176990Y-20108152D01*
X109129371Y-20060533D01*
X109034133Y-20012914D01*
X108843657Y-20012914D01*
X108748419Y-20060533D01*
X107843657Y-20012914D02*
X107843657Y-20679580D01*
X108272228Y-20012914D02*
X108272228Y-20536723D01*
X108224609Y-20631961D01*
X108129371Y-20679580D01*
X107986514Y-20679580D01*
X107891276Y-20631961D01*
X107843657Y-20584342D01*
X107367466Y-20679580D02*
X107367466Y-20012914D01*
X107367466Y-19679580D02*
X107415085Y-19727200D01*
X107367466Y-19774819D01*
X107319847Y-19727200D01*
X107367466Y-19679580D01*
X107367466Y-19774819D01*
X106891276Y-20012914D02*
X106891276Y-20679580D01*
X106891276Y-20108152D02*
X106843657Y-20060533D01*
X106748419Y-20012914D01*
X106605561Y-20012914D01*
X106510323Y-20060533D01*
X106462704Y-20155771D01*
X106462704Y-20679580D01*
X105843657Y-20679580D02*
X105938895Y-20631961D01*
X105986514Y-20584342D01*
X106034133Y-20489104D01*
X106034133Y-20203390D01*
X105986514Y-20108152D01*
X105938895Y-20060533D01*
X105843657Y-20012914D01*
X105700800Y-20012914D01*
X105605561Y-20060533D01*
X105557942Y-20108152D01*
X105510323Y-20203390D01*
X105510323Y-20489104D01*
X105557942Y-20584342D01*
X105605561Y-20631961D01*
X105700800Y-20679580D01*
X105843657Y-20679580D01*
X104415085Y-19679580D02*
X104176990Y-20679580D01*
X103986514Y-19965295D01*
X103796038Y-20679580D01*
X103557942Y-19679580D01*
X102796038Y-20631961D02*
X102891276Y-20679580D01*
X103081752Y-20679580D01*
X103176990Y-20631961D01*
X103224609Y-20536723D01*
X103224609Y-20155771D01*
X103176990Y-20060533D01*
X103081752Y-20012914D01*
X102891276Y-20012914D01*
X102796038Y-20060533D01*
X102748419Y-20155771D01*
X102748419Y-20251009D01*
X103224609Y-20346247D01*
X101891276Y-20679580D02*
X101891276Y-20155771D01*
X101938895Y-20060533D01*
X102034133Y-20012914D01*
X102224609Y-20012914D01*
X102319847Y-20060533D01*
X101891276Y-20631961D02*
X101986514Y-20679580D01*
X102224609Y-20679580D01*
X102319847Y-20631961D01*
X102367466Y-20536723D01*
X102367466Y-20441485D01*
X102319847Y-20346247D01*
X102224609Y-20298628D01*
X101986514Y-20298628D01*
X101891276Y-20251009D01*
X101557942Y-20012914D02*
X101176990Y-20012914D01*
X101415085Y-19679580D02*
X101415085Y-20536723D01*
X101367466Y-20631961D01*
X101272228Y-20679580D01*
X101176990Y-20679580D01*
X100843657Y-20679580D02*
X100843657Y-19679580D01*
X100415085Y-20679580D02*
X100415085Y-20155771D01*
X100462704Y-20060533D01*
X100557942Y-20012914D01*
X100700800Y-20012914D01*
X100796038Y-20060533D01*
X100843657Y-20108152D01*
X99557942Y-20631961D02*
X99653180Y-20679580D01*
X99843657Y-20679580D01*
X99938895Y-20631961D01*
X99986514Y-20536723D01*
X99986514Y-20155771D01*
X99938895Y-20060533D01*
X99843657Y-20012914D01*
X99653180Y-20012914D01*
X99557942Y-20060533D01*
X99510323Y-20155771D01*
X99510323Y-20251009D01*
X99986514Y-20346247D01*
X99081752Y-20679580D02*
X99081752Y-20012914D01*
X99081752Y-20203390D02*
X99034133Y-20108152D01*
X98986514Y-20060533D01*
X98891276Y-20012914D01*
X98796038Y-20012914D01*
X97367466Y-20155771D02*
X97224609Y-20203390D01*
X97176990Y-20251009D01*
X97129371Y-20346247D01*
X97129371Y-20489104D01*
X97176990Y-20584342D01*
X97224609Y-20631961D01*
X97319847Y-20679580D01*
X97700800Y-20679580D01*
X97700800Y-19679580D01*
X97367466Y-19679580D01*
X97272228Y-19727200D01*
X97224609Y-19774819D01*
X97176990Y-19870057D01*
X97176990Y-19965295D01*
X97224609Y-20060533D01*
X97272228Y-20108152D01*
X97367466Y-20155771D01*
X97700800Y-20155771D01*
X96557942Y-20679580D02*
X96653180Y-20631961D01*
X96700800Y-20584342D01*
X96748419Y-20489104D01*
X96748419Y-20203390D01*
X96700800Y-20108152D01*
X96653180Y-20060533D01*
X96557942Y-20012914D01*
X96415085Y-20012914D01*
X96319847Y-20060533D01*
X96272228Y-20108152D01*
X96224609Y-20203390D01*
X96224609Y-20489104D01*
X96272228Y-20584342D01*
X96319847Y-20631961D01*
X96415085Y-20679580D01*
X96557942Y-20679580D01*
X95367466Y-20679580D02*
X95367466Y-20155771D01*
X95415085Y-20060533D01*
X95510323Y-20012914D01*
X95700800Y-20012914D01*
X95796038Y-20060533D01*
X95367466Y-20631961D02*
X95462704Y-20679580D01*
X95700800Y-20679580D01*
X95796038Y-20631961D01*
X95843657Y-20536723D01*
X95843657Y-20441485D01*
X95796038Y-20346247D01*
X95700800Y-20298628D01*
X95462704Y-20298628D01*
X95367466Y-20251009D01*
X94891276Y-20679580D02*
X94891276Y-20012914D01*
X94891276Y-20203390D02*
X94843657Y-20108152D01*
X94796038Y-20060533D01*
X94700800Y-20012914D01*
X94605561Y-20012914D01*
X93843657Y-20679580D02*
X93843657Y-19679580D01*
X93843657Y-20631961D02*
X93938895Y-20679580D01*
X94129371Y-20679580D01*
X94224609Y-20631961D01*
X94272228Y-20584342D01*
X94319847Y-20489104D01*
X94319847Y-20203390D01*
X94272228Y-20108152D01*
X94224609Y-20060533D01*
X94129371Y-20012914D01*
X93938895Y-20012914D01*
X93843657Y-20060533D01*
X92700800Y-20012914D02*
X92462704Y-20679580D01*
X92224609Y-20012914D01*
X91319847Y-20679580D02*
X91891276Y-20679580D01*
X91605561Y-20679580D02*
X91605561Y-19679580D01*
X91700800Y-19822438D01*
X91796038Y-19917676D01*
X91891276Y-19965295D01*
X90891276Y-20584342D02*
X90843657Y-20631961D01*
X90891276Y-20679580D01*
X90938895Y-20631961D01*
X90891276Y-20584342D01*
X90891276Y-20679580D01*
X89891276Y-20679580D02*
X90462704Y-20679580D01*
X90176990Y-20679580D02*
X90176990Y-19679580D01*
X90272228Y-19822438D01*
X90367466Y-19917676D01*
X90462704Y-19965295D01*
X49063714Y-67644228D02*
X48301809Y-67644228D01*
X48682761Y-68025180D02*
X48682761Y-67263276D01*
X47349428Y-67025180D02*
X47825619Y-67025180D01*
X47873238Y-67501371D01*
X47825619Y-67453752D01*
X47730380Y-67406133D01*
X47492285Y-67406133D01*
X47397047Y-67453752D01*
X47349428Y-67501371D01*
X47301809Y-67596609D01*
X47301809Y-67834704D01*
X47349428Y-67929942D01*
X47397047Y-67977561D01*
X47492285Y-68025180D01*
X47730380Y-68025180D01*
X47825619Y-67977561D01*
X47873238Y-67929942D01*
X47016095Y-67025180D02*
X46682761Y-68025180D01*
X46349428Y-67025180D01*
X48387504Y-72152800D02*
X48482742Y-72105180D01*
X48625600Y-72105180D01*
X48768457Y-72152800D01*
X48863695Y-72248038D01*
X48911314Y-72343276D01*
X48958933Y-72533752D01*
X48958933Y-72676609D01*
X48911314Y-72867085D01*
X48863695Y-72962323D01*
X48768457Y-73057561D01*
X48625600Y-73105180D01*
X48530361Y-73105180D01*
X48387504Y-73057561D01*
X48339885Y-73009942D01*
X48339885Y-72676609D01*
X48530361Y-72676609D01*
X47911314Y-73105180D02*
X47911314Y-72105180D01*
X47339885Y-73105180D01*
X47339885Y-72105180D01*
X46863695Y-73105180D02*
X46863695Y-72105180D01*
X46625600Y-72105180D01*
X46482742Y-72152800D01*
X46387504Y-72248038D01*
X46339885Y-72343276D01*
X46292266Y-72533752D01*
X46292266Y-72676609D01*
X46339885Y-72867085D01*
X46387504Y-72962323D01*
X46482742Y-73057561D01*
X46625600Y-73105180D01*
X46863695Y-73105180D01*
X47984285Y-70279466D02*
X47508095Y-70279466D01*
X48079523Y-70565180D02*
X47746190Y-69565180D01*
X47412857Y-70565180D01*
X47174761Y-69565180D02*
X46508095Y-69565180D01*
X46936666Y-70565180D01*
X47882685Y-58544666D02*
X47406495Y-58544666D01*
X47977923Y-58830380D02*
X47644590Y-57830380D01*
X47311257Y-58830380D01*
X47025542Y-57925619D02*
X46977923Y-57878000D01*
X46882685Y-57830380D01*
X46644590Y-57830380D01*
X46549352Y-57878000D01*
X46501733Y-57925619D01*
X46454114Y-58020857D01*
X46454114Y-58116095D01*
X46501733Y-58258952D01*
X47073161Y-58830380D01*
X46454114Y-58830380D01*
X49012914Y-55960228D02*
X48251009Y-55960228D01*
X48631961Y-56341180D02*
X48631961Y-55579276D01*
X47298628Y-55341180D02*
X47774819Y-55341180D01*
X47822438Y-55817371D01*
X47774819Y-55769752D01*
X47679580Y-55722133D01*
X47441485Y-55722133D01*
X47346247Y-55769752D01*
X47298628Y-55817371D01*
X47251009Y-55912609D01*
X47251009Y-56150704D01*
X47298628Y-56245942D01*
X47346247Y-56293561D01*
X47441485Y-56341180D01*
X47679580Y-56341180D01*
X47774819Y-56293561D01*
X47822438Y-56245942D01*
X46965295Y-55341180D02*
X46631961Y-56341180D01*
X46298628Y-55341180D01*
X47882685Y-46962266D02*
X47406495Y-46962266D01*
X47977923Y-47247980D02*
X47644590Y-46247980D01*
X47311257Y-47247980D01*
X46454114Y-47247980D02*
X47025542Y-47247980D01*
X46739828Y-47247980D02*
X46739828Y-46247980D01*
X46835066Y-46390838D01*
X46930304Y-46486076D01*
X47025542Y-46533695D01*
X47882685Y-35227466D02*
X47406495Y-35227466D01*
X47977923Y-35513180D02*
X47644590Y-34513180D01*
X47311257Y-35513180D01*
X46787447Y-34513180D02*
X46692209Y-34513180D01*
X46596971Y-34560800D01*
X46549352Y-34608419D01*
X46501733Y-34703657D01*
X46454114Y-34894133D01*
X46454114Y-35132228D01*
X46501733Y-35322704D01*
X46549352Y-35417942D01*
X46596971Y-35465561D01*
X46692209Y-35513180D01*
X46787447Y-35513180D01*
X46882685Y-35465561D01*
X46930304Y-35417942D01*
X46977923Y-35322704D01*
X47025542Y-35132228D01*
X47025542Y-34894133D01*
X46977923Y-34703657D01*
X46930304Y-34608419D01*
X46882685Y-34560800D01*
X46787447Y-34513180D01*
X48285904Y-60418000D02*
X48381142Y-60370380D01*
X48524000Y-60370380D01*
X48666857Y-60418000D01*
X48762095Y-60513238D01*
X48809714Y-60608476D01*
X48857333Y-60798952D01*
X48857333Y-60941809D01*
X48809714Y-61132285D01*
X48762095Y-61227523D01*
X48666857Y-61322761D01*
X48524000Y-61370380D01*
X48428761Y-61370380D01*
X48285904Y-61322761D01*
X48238285Y-61275142D01*
X48238285Y-60941809D01*
X48428761Y-60941809D01*
X47809714Y-61370380D02*
X47809714Y-60370380D01*
X47238285Y-61370380D01*
X47238285Y-60370380D01*
X46762095Y-61370380D02*
X46762095Y-60370380D01*
X46524000Y-60370380D01*
X46381142Y-60418000D01*
X46285904Y-60513238D01*
X46238285Y-60608476D01*
X46190666Y-60798952D01*
X46190666Y-60941809D01*
X46238285Y-61132285D01*
X46285904Y-61227523D01*
X46381142Y-61322761D01*
X46524000Y-61370380D01*
X46762095Y-61370380D01*
X48962114Y-32592228D02*
X48200209Y-32592228D01*
X48581161Y-32973180D02*
X48581161Y-32211276D01*
X47247828Y-31973180D02*
X47724019Y-31973180D01*
X47771638Y-32449371D01*
X47724019Y-32401752D01*
X47628780Y-32354133D01*
X47390685Y-32354133D01*
X47295447Y-32401752D01*
X47247828Y-32449371D01*
X47200209Y-32544609D01*
X47200209Y-32782704D01*
X47247828Y-32877942D01*
X47295447Y-32925561D01*
X47390685Y-32973180D01*
X47628780Y-32973180D01*
X47724019Y-32925561D01*
X47771638Y-32877942D01*
X46914495Y-31973180D02*
X46581161Y-32973180D01*
X46247828Y-31973180D01*
X48962114Y-44327028D02*
X48200209Y-44327028D01*
X48581161Y-44707980D02*
X48581161Y-43946076D01*
X47247828Y-43707980D02*
X47724019Y-43707980D01*
X47771638Y-44184171D01*
X47724019Y-44136552D01*
X47628780Y-44088933D01*
X47390685Y-44088933D01*
X47295447Y-44136552D01*
X47247828Y-44184171D01*
X47200209Y-44279409D01*
X47200209Y-44517504D01*
X47247828Y-44612742D01*
X47295447Y-44660361D01*
X47390685Y-44707980D01*
X47628780Y-44707980D01*
X47724019Y-44660361D01*
X47771638Y-44612742D01*
X46914495Y-43707980D02*
X46581161Y-44707980D01*
X46247828Y-43707980D01*
X48285904Y-48835600D02*
X48381142Y-48787980D01*
X48524000Y-48787980D01*
X48666857Y-48835600D01*
X48762095Y-48930838D01*
X48809714Y-49026076D01*
X48857333Y-49216552D01*
X48857333Y-49359409D01*
X48809714Y-49549885D01*
X48762095Y-49645123D01*
X48666857Y-49740361D01*
X48524000Y-49787980D01*
X48428761Y-49787980D01*
X48285904Y-49740361D01*
X48238285Y-49692742D01*
X48238285Y-49359409D01*
X48428761Y-49359409D01*
X47809714Y-49787980D02*
X47809714Y-48787980D01*
X47238285Y-49787980D01*
X47238285Y-48787980D01*
X46762095Y-49787980D02*
X46762095Y-48787980D01*
X46524000Y-48787980D01*
X46381142Y-48835600D01*
X46285904Y-48930838D01*
X46238285Y-49026076D01*
X46190666Y-49216552D01*
X46190666Y-49359409D01*
X46238285Y-49549885D01*
X46285904Y-49645123D01*
X46381142Y-49740361D01*
X46524000Y-49787980D01*
X46762095Y-49787980D01*
X48285904Y-37100800D02*
X48381142Y-37053180D01*
X48524000Y-37053180D01*
X48666857Y-37100800D01*
X48762095Y-37196038D01*
X48809714Y-37291276D01*
X48857333Y-37481752D01*
X48857333Y-37624609D01*
X48809714Y-37815085D01*
X48762095Y-37910323D01*
X48666857Y-38005561D01*
X48524000Y-38053180D01*
X48428761Y-38053180D01*
X48285904Y-38005561D01*
X48238285Y-37957942D01*
X48238285Y-37624609D01*
X48428761Y-37624609D01*
X47809714Y-38053180D02*
X47809714Y-37053180D01*
X47238285Y-38053180D01*
X47238285Y-37053180D01*
X46762095Y-38053180D02*
X46762095Y-37053180D01*
X46524000Y-37053180D01*
X46381142Y-37100800D01*
X46285904Y-37196038D01*
X46238285Y-37291276D01*
X46190666Y-37481752D01*
X46190666Y-37624609D01*
X46238285Y-37815085D01*
X46285904Y-37910323D01*
X46381142Y-38005561D01*
X46524000Y-38053180D01*
X46762095Y-38053180D01*
X108448914Y-78566228D02*
X107687009Y-78566228D01*
X108067961Y-78947180D02*
X108067961Y-78185276D01*
X106734628Y-77947180D02*
X107210819Y-77947180D01*
X107258438Y-78423371D01*
X107210819Y-78375752D01*
X107115580Y-78328133D01*
X106877485Y-78328133D01*
X106782247Y-78375752D01*
X106734628Y-78423371D01*
X106687009Y-78518609D01*
X106687009Y-78756704D01*
X106734628Y-78851942D01*
X106782247Y-78899561D01*
X106877485Y-78947180D01*
X107115580Y-78947180D01*
X107210819Y-78899561D01*
X107258438Y-78851942D01*
X106401295Y-77947180D02*
X106067961Y-78947180D01*
X105734628Y-77947180D01*
X117796114Y-78566228D02*
X117034209Y-78566228D01*
X117415161Y-78947180D02*
X117415161Y-78185276D01*
X116081828Y-77947180D02*
X116558019Y-77947180D01*
X116605638Y-78423371D01*
X116558019Y-78375752D01*
X116462780Y-78328133D01*
X116224685Y-78328133D01*
X116129447Y-78375752D01*
X116081828Y-78423371D01*
X116034209Y-78518609D01*
X116034209Y-78756704D01*
X116081828Y-78851942D01*
X116129447Y-78899561D01*
X116224685Y-78947180D01*
X116462780Y-78947180D01*
X116558019Y-78899561D01*
X116605638Y-78851942D01*
X115748495Y-77947180D02*
X115415161Y-78947180D01*
X115081828Y-77947180D01*
X107925104Y-73067200D02*
X108020342Y-73019580D01*
X108163200Y-73019580D01*
X108306057Y-73067200D01*
X108401295Y-73162438D01*
X108448914Y-73257676D01*
X108496533Y-73448152D01*
X108496533Y-73591009D01*
X108448914Y-73781485D01*
X108401295Y-73876723D01*
X108306057Y-73971961D01*
X108163200Y-74019580D01*
X108067961Y-74019580D01*
X107925104Y-73971961D01*
X107877485Y-73924342D01*
X107877485Y-73591009D01*
X108067961Y-73591009D01*
X107448914Y-74019580D02*
X107448914Y-73019580D01*
X106877485Y-74019580D01*
X106877485Y-73019580D01*
X106401295Y-74019580D02*
X106401295Y-73019580D01*
X106163200Y-73019580D01*
X106020342Y-73067200D01*
X105925104Y-73162438D01*
X105877485Y-73257676D01*
X105829866Y-73448152D01*
X105829866Y-73591009D01*
X105877485Y-73781485D01*
X105925104Y-73876723D01*
X106020342Y-73971961D01*
X106163200Y-74019580D01*
X106401295Y-74019580D01*
X117170704Y-73067200D02*
X117265942Y-73019580D01*
X117408800Y-73019580D01*
X117551657Y-73067200D01*
X117646895Y-73162438D01*
X117694514Y-73257676D01*
X117742133Y-73448152D01*
X117742133Y-73591009D01*
X117694514Y-73781485D01*
X117646895Y-73876723D01*
X117551657Y-73971961D01*
X117408800Y-74019580D01*
X117313561Y-74019580D01*
X117170704Y-73971961D01*
X117123085Y-73924342D01*
X117123085Y-73591009D01*
X117313561Y-73591009D01*
X116694514Y-74019580D02*
X116694514Y-73019580D01*
X116123085Y-74019580D01*
X116123085Y-73019580D01*
X115646895Y-74019580D02*
X115646895Y-73019580D01*
X115408800Y-73019580D01*
X115265942Y-73067200D01*
X115170704Y-73162438D01*
X115123085Y-73257676D01*
X115075466Y-73448152D01*
X115075466Y-73591009D01*
X115123085Y-73781485D01*
X115170704Y-73876723D01*
X115265942Y-73971961D01*
X115408800Y-74019580D01*
X115646895Y-74019580D01*
X108358495Y-76508780D02*
X108358495Y-75508780D01*
X108120400Y-75508780D01*
X107977542Y-75556400D01*
X107882304Y-75651638D01*
X107834685Y-75746876D01*
X107787066Y-75937352D01*
X107787066Y-76080209D01*
X107834685Y-76270685D01*
X107882304Y-76365923D01*
X107977542Y-76461161D01*
X108120400Y-76508780D01*
X108358495Y-76508780D01*
X106882304Y-75508780D02*
X107358495Y-75508780D01*
X107406114Y-75984971D01*
X107358495Y-75937352D01*
X107263257Y-75889733D01*
X107025161Y-75889733D01*
X106929923Y-75937352D01*
X106882304Y-75984971D01*
X106834685Y-76080209D01*
X106834685Y-76318304D01*
X106882304Y-76413542D01*
X106929923Y-76461161D01*
X107025161Y-76508780D01*
X107263257Y-76508780D01*
X107358495Y-76461161D01*
X107406114Y-76413542D01*
X117654895Y-76508780D02*
X117654895Y-75508780D01*
X117416800Y-75508780D01*
X117273942Y-75556400D01*
X117178704Y-75651638D01*
X117131085Y-75746876D01*
X117083466Y-75937352D01*
X117083466Y-76080209D01*
X117131085Y-76270685D01*
X117178704Y-76365923D01*
X117273942Y-76461161D01*
X117416800Y-76508780D01*
X117654895Y-76508780D01*
X116226323Y-75508780D02*
X116416800Y-75508780D01*
X116512038Y-75556400D01*
X116559657Y-75604019D01*
X116654895Y-75746876D01*
X116702514Y-75937352D01*
X116702514Y-76318304D01*
X116654895Y-76413542D01*
X116607276Y-76461161D01*
X116512038Y-76508780D01*
X116321561Y-76508780D01*
X116226323Y-76461161D01*
X116178704Y-76413542D01*
X116131085Y-76318304D01*
X116131085Y-76080209D01*
X116178704Y-75984971D01*
X116226323Y-75937352D01*
X116321561Y-75889733D01*
X116512038Y-75889733D01*
X116607276Y-75937352D01*
X116654895Y-75984971D01*
X116702514Y-76080209D01*
X118237504Y-55084000D02*
X118332742Y-55036380D01*
X118475600Y-55036380D01*
X118618457Y-55084000D01*
X118713695Y-55179238D01*
X118761314Y-55274476D01*
X118808933Y-55464952D01*
X118808933Y-55607809D01*
X118761314Y-55798285D01*
X118713695Y-55893523D01*
X118618457Y-55988761D01*
X118475600Y-56036380D01*
X118380361Y-56036380D01*
X118237504Y-55988761D01*
X118189885Y-55941142D01*
X118189885Y-55607809D01*
X118380361Y-55607809D01*
X117761314Y-56036380D02*
X117761314Y-55036380D01*
X117189885Y-56036380D01*
X117189885Y-55036380D01*
X116713695Y-56036380D02*
X116713695Y-55036380D01*
X116475600Y-55036380D01*
X116332742Y-55084000D01*
X116237504Y-55179238D01*
X116189885Y-55274476D01*
X116142266Y-55464952D01*
X116142266Y-55607809D01*
X116189885Y-55798285D01*
X116237504Y-55893523D01*
X116332742Y-55988761D01*
X116475600Y-56036380D01*
X116713695Y-56036380D01*
X108788704Y-55033200D02*
X108883942Y-54985580D01*
X109026800Y-54985580D01*
X109169657Y-55033200D01*
X109264895Y-55128438D01*
X109312514Y-55223676D01*
X109360133Y-55414152D01*
X109360133Y-55557009D01*
X109312514Y-55747485D01*
X109264895Y-55842723D01*
X109169657Y-55937961D01*
X109026800Y-55985580D01*
X108931561Y-55985580D01*
X108788704Y-55937961D01*
X108741085Y-55890342D01*
X108741085Y-55557009D01*
X108931561Y-55557009D01*
X108312514Y-55985580D02*
X108312514Y-54985580D01*
X107741085Y-55985580D01*
X107741085Y-54985580D01*
X107264895Y-55985580D02*
X107264895Y-54985580D01*
X107026800Y-54985580D01*
X106883942Y-55033200D01*
X106788704Y-55128438D01*
X106741085Y-55223676D01*
X106693466Y-55414152D01*
X106693466Y-55557009D01*
X106741085Y-55747485D01*
X106788704Y-55842723D01*
X106883942Y-55937961D01*
X107026800Y-55985580D01*
X107264895Y-55985580D01*
X109272895Y-53496380D02*
X109272895Y-52496380D01*
X109034800Y-52496380D01*
X108891942Y-52544000D01*
X108796704Y-52639238D01*
X108749085Y-52734476D01*
X108701466Y-52924952D01*
X108701466Y-53067809D01*
X108749085Y-53258285D01*
X108796704Y-53353523D01*
X108891942Y-53448761D01*
X109034800Y-53496380D01*
X109272895Y-53496380D01*
X108320514Y-52591619D02*
X108272895Y-52544000D01*
X108177657Y-52496380D01*
X107939561Y-52496380D01*
X107844323Y-52544000D01*
X107796704Y-52591619D01*
X107749085Y-52686857D01*
X107749085Y-52782095D01*
X107796704Y-52924952D01*
X108368133Y-53496380D01*
X107749085Y-53496380D01*
X118772495Y-53547180D02*
X118772495Y-52547180D01*
X118534400Y-52547180D01*
X118391542Y-52594800D01*
X118296304Y-52690038D01*
X118248685Y-52785276D01*
X118201066Y-52975752D01*
X118201066Y-53118609D01*
X118248685Y-53309085D01*
X118296304Y-53404323D01*
X118391542Y-53499561D01*
X118534400Y-53547180D01*
X118772495Y-53547180D01*
X117867733Y-52547180D02*
X117248685Y-52547180D01*
X117582019Y-52928133D01*
X117439161Y-52928133D01*
X117343923Y-52975752D01*
X117296304Y-53023371D01*
X117248685Y-53118609D01*
X117248685Y-53356704D01*
X117296304Y-53451942D01*
X117343923Y-53499561D01*
X117439161Y-53547180D01*
X117724876Y-53547180D01*
X117820114Y-53499561D01*
X117867733Y-53451942D01*
X115641980Y-67444304D02*
X114641980Y-67444304D01*
X114641980Y-67682400D01*
X114689600Y-67825257D01*
X114784838Y-67920495D01*
X114880076Y-67968114D01*
X115070552Y-68015733D01*
X115213409Y-68015733D01*
X115403885Y-67968114D01*
X115499123Y-67920495D01*
X115594361Y-67825257D01*
X115641980Y-67682400D01*
X115641980Y-67444304D01*
X114975314Y-68872876D02*
X115641980Y-68872876D01*
X114594361Y-68634780D02*
X115308647Y-68396685D01*
X115308647Y-69015733D01*
X110327066Y-67417314D02*
X110327066Y-67893504D01*
X110612780Y-67322076D02*
X109612780Y-67655409D01*
X110612780Y-67988742D01*
X109612780Y-68226838D02*
X109612780Y-68845885D01*
X109993733Y-68512552D01*
X109993733Y-68655409D01*
X110041352Y-68750647D01*
X110088971Y-68798266D01*
X110184209Y-68845885D01*
X110422304Y-68845885D01*
X110517542Y-68798266D01*
X110565161Y-68750647D01*
X110612780Y-68655409D01*
X110612780Y-68369695D01*
X110565161Y-68274457D01*
X110517542Y-68226838D01*
X117229600Y-67674495D02*
X117181980Y-67579257D01*
X117181980Y-67436400D01*
X117229600Y-67293542D01*
X117324838Y-67198304D01*
X117420076Y-67150685D01*
X117610552Y-67103066D01*
X117753409Y-67103066D01*
X117943885Y-67150685D01*
X118039123Y-67198304D01*
X118134361Y-67293542D01*
X118181980Y-67436400D01*
X118181980Y-67531638D01*
X118134361Y-67674495D01*
X118086742Y-67722114D01*
X117753409Y-67722114D01*
X117753409Y-67531638D01*
X118181980Y-68150685D02*
X117181980Y-68150685D01*
X118181980Y-68722114D01*
X117181980Y-68722114D01*
X118181980Y-69198304D02*
X117181980Y-69198304D01*
X117181980Y-69436400D01*
X117229600Y-69579257D01*
X117324838Y-69674495D01*
X117420076Y-69722114D01*
X117610552Y-69769733D01*
X117753409Y-69769733D01*
X117943885Y-69722114D01*
X118039123Y-69674495D01*
X118134361Y-69579257D01*
X118181980Y-69436400D01*
X118181980Y-69198304D01*
X112200400Y-67572895D02*
X112152780Y-67477657D01*
X112152780Y-67334800D01*
X112200400Y-67191942D01*
X112295638Y-67096704D01*
X112390876Y-67049085D01*
X112581352Y-67001466D01*
X112724209Y-67001466D01*
X112914685Y-67049085D01*
X113009923Y-67096704D01*
X113105161Y-67191942D01*
X113152780Y-67334800D01*
X113152780Y-67430038D01*
X113105161Y-67572895D01*
X113057542Y-67620514D01*
X112724209Y-67620514D01*
X112724209Y-67430038D01*
X113152780Y-68049085D02*
X112152780Y-68049085D01*
X113152780Y-68620514D01*
X112152780Y-68620514D01*
X113152780Y-69096704D02*
X112152780Y-69096704D01*
X112152780Y-69334800D01*
X112200400Y-69477657D01*
X112295638Y-69572895D01*
X112390876Y-69620514D01*
X112581352Y-69668133D01*
X112724209Y-69668133D01*
X112914685Y-69620514D01*
X113009923Y-69572895D01*
X113105161Y-69477657D01*
X113152780Y-69334800D01*
X113152780Y-69096704D01*
X107742628Y-66845885D02*
X107742628Y-67607790D01*
X108123580Y-67226838D02*
X107361676Y-67226838D01*
X107123580Y-68560171D02*
X107123580Y-68083980D01*
X107599771Y-68036361D01*
X107552152Y-68083980D01*
X107504533Y-68179219D01*
X107504533Y-68417314D01*
X107552152Y-68512552D01*
X107599771Y-68560171D01*
X107695009Y-68607790D01*
X107933104Y-68607790D01*
X108028342Y-68560171D01*
X108075961Y-68512552D01*
X108123580Y-68417314D01*
X108123580Y-68179219D01*
X108075961Y-68083980D01*
X108028342Y-68036361D01*
X107123580Y-68893504D02*
X108123580Y-69226838D01*
X107123580Y-69560171D01*
X107901295Y-43031580D02*
X107901295Y-42031580D01*
X107663200Y-42031580D01*
X107520342Y-42079200D01*
X107425104Y-42174438D01*
X107377485Y-42269676D01*
X107329866Y-42460152D01*
X107329866Y-42603009D01*
X107377485Y-42793485D01*
X107425104Y-42888723D01*
X107520342Y-42983961D01*
X107663200Y-43031580D01*
X107901295Y-43031580D01*
X106472723Y-42364914D02*
X106472723Y-43031580D01*
X106710819Y-41983961D02*
X106948914Y-42698247D01*
X106329866Y-42698247D01*
X107901295Y-40440780D02*
X107901295Y-39440780D01*
X107663200Y-39440780D01*
X107520342Y-39488400D01*
X107425104Y-39583638D01*
X107377485Y-39678876D01*
X107329866Y-39869352D01*
X107329866Y-40012209D01*
X107377485Y-40202685D01*
X107425104Y-40297923D01*
X107520342Y-40393161D01*
X107663200Y-40440780D01*
X107901295Y-40440780D01*
X106472723Y-39440780D02*
X106663200Y-39440780D01*
X106758438Y-39488400D01*
X106806057Y-39536019D01*
X106901295Y-39678876D01*
X106948914Y-39869352D01*
X106948914Y-40250304D01*
X106901295Y-40345542D01*
X106853676Y-40393161D01*
X106758438Y-40440780D01*
X106567961Y-40440780D01*
X106472723Y-40393161D01*
X106425104Y-40345542D01*
X106377485Y-40250304D01*
X106377485Y-40012209D01*
X106425104Y-39916971D01*
X106472723Y-39869352D01*
X106567961Y-39821733D01*
X106758438Y-39821733D01*
X106853676Y-39869352D01*
X106901295Y-39916971D01*
X106948914Y-40012209D01*
X107901295Y-37951580D02*
X107901295Y-36951580D01*
X107663200Y-36951580D01*
X107520342Y-36999200D01*
X107425104Y-37094438D01*
X107377485Y-37189676D01*
X107329866Y-37380152D01*
X107329866Y-37523009D01*
X107377485Y-37713485D01*
X107425104Y-37808723D01*
X107520342Y-37903961D01*
X107663200Y-37951580D01*
X107901295Y-37951580D01*
X106758438Y-37380152D02*
X106853676Y-37332533D01*
X106901295Y-37284914D01*
X106948914Y-37189676D01*
X106948914Y-37142057D01*
X106901295Y-37046819D01*
X106853676Y-36999200D01*
X106758438Y-36951580D01*
X106567961Y-36951580D01*
X106472723Y-36999200D01*
X106425104Y-37046819D01*
X106377485Y-37142057D01*
X106377485Y-37189676D01*
X106425104Y-37284914D01*
X106472723Y-37332533D01*
X106567961Y-37380152D01*
X106758438Y-37380152D01*
X106853676Y-37427771D01*
X106901295Y-37475390D01*
X106948914Y-37570628D01*
X106948914Y-37761104D01*
X106901295Y-37856342D01*
X106853676Y-37903961D01*
X106758438Y-37951580D01*
X106567961Y-37951580D01*
X106472723Y-37903961D01*
X106425104Y-37856342D01*
X106377485Y-37761104D01*
X106377485Y-37570628D01*
X106425104Y-37475390D01*
X106472723Y-37427771D01*
X106567961Y-37380152D01*
X107869485Y-35360780D02*
X107869485Y-34360780D01*
X107631390Y-34360780D01*
X107488533Y-34408400D01*
X107393295Y-34503638D01*
X107345676Y-34598876D01*
X107298057Y-34789352D01*
X107298057Y-34932209D01*
X107345676Y-35122685D01*
X107393295Y-35217923D01*
X107488533Y-35313161D01*
X107631390Y-35360780D01*
X107869485Y-35360780D01*
X106345676Y-35360780D02*
X106917104Y-35360780D01*
X106631390Y-35360780D02*
X106631390Y-34360780D01*
X106726628Y-34503638D01*
X106821866Y-34598876D01*
X106917104Y-34646495D01*
X105726628Y-34360780D02*
X105631390Y-34360780D01*
X105536152Y-34408400D01*
X105488533Y-34456019D01*
X105440914Y-34551257D01*
X105393295Y-34741733D01*
X105393295Y-34979828D01*
X105440914Y-35170304D01*
X105488533Y-35265542D01*
X105536152Y-35313161D01*
X105631390Y-35360780D01*
X105726628Y-35360780D01*
X105821866Y-35313161D01*
X105869485Y-35265542D01*
X105917104Y-35170304D01*
X105964723Y-34979828D01*
X105964723Y-34741733D01*
X105917104Y-34551257D01*
X105869485Y-34456019D01*
X105821866Y-34408400D01*
X105726628Y-34360780D01*
X107890114Y-32490628D02*
X107128209Y-32490628D01*
X107509161Y-32871580D02*
X107509161Y-32109676D01*
X106175828Y-31871580D02*
X106652019Y-31871580D01*
X106699638Y-32347771D01*
X106652019Y-32300152D01*
X106556780Y-32252533D01*
X106318685Y-32252533D01*
X106223447Y-32300152D01*
X106175828Y-32347771D01*
X106128209Y-32443009D01*
X106128209Y-32681104D01*
X106175828Y-32776342D01*
X106223447Y-32823961D01*
X106318685Y-32871580D01*
X106556780Y-32871580D01*
X106652019Y-32823961D01*
X106699638Y-32776342D01*
X105842495Y-31871580D02*
X105509161Y-32871580D01*
X105175828Y-31871580D01*
X115037104Y-42079200D02*
X115132342Y-42031580D01*
X115275200Y-42031580D01*
X115418057Y-42079200D01*
X115513295Y-42174438D01*
X115560914Y-42269676D01*
X115608533Y-42460152D01*
X115608533Y-42603009D01*
X115560914Y-42793485D01*
X115513295Y-42888723D01*
X115418057Y-42983961D01*
X115275200Y-43031580D01*
X115179961Y-43031580D01*
X115037104Y-42983961D01*
X114989485Y-42936342D01*
X114989485Y-42603009D01*
X115179961Y-42603009D01*
X114560914Y-43031580D02*
X114560914Y-42031580D01*
X113989485Y-43031580D01*
X113989485Y-42031580D01*
X113513295Y-43031580D02*
X113513295Y-42031580D01*
X113275200Y-42031580D01*
X113132342Y-42079200D01*
X113037104Y-42174438D01*
X112989485Y-42269676D01*
X112941866Y-42460152D01*
X112941866Y-42603009D01*
X112989485Y-42793485D01*
X113037104Y-42888723D01*
X113132342Y-42983961D01*
X113275200Y-43031580D01*
X113513295Y-43031580D01*
X114505295Y-40440780D02*
X114505295Y-39440780D01*
X114267200Y-39440780D01*
X114124342Y-39488400D01*
X114029104Y-39583638D01*
X113981485Y-39678876D01*
X113933866Y-39869352D01*
X113933866Y-40012209D01*
X113981485Y-40202685D01*
X114029104Y-40297923D01*
X114124342Y-40393161D01*
X114267200Y-40440780D01*
X114505295Y-40440780D01*
X113029104Y-39440780D02*
X113505295Y-39440780D01*
X113552914Y-39916971D01*
X113505295Y-39869352D01*
X113410057Y-39821733D01*
X113171961Y-39821733D01*
X113076723Y-39869352D01*
X113029104Y-39916971D01*
X112981485Y-40012209D01*
X112981485Y-40250304D01*
X113029104Y-40345542D01*
X113076723Y-40393161D01*
X113171961Y-40440780D01*
X113410057Y-40440780D01*
X113505295Y-40393161D01*
X113552914Y-40345542D01*
X114505295Y-37900780D02*
X114505295Y-36900780D01*
X114267200Y-36900780D01*
X114124342Y-36948400D01*
X114029104Y-37043638D01*
X113981485Y-37138876D01*
X113933866Y-37329352D01*
X113933866Y-37472209D01*
X113981485Y-37662685D01*
X114029104Y-37757923D01*
X114124342Y-37853161D01*
X114267200Y-37900780D01*
X114505295Y-37900780D01*
X113600533Y-36900780D02*
X112933866Y-36900780D01*
X113362438Y-37900780D01*
X114556095Y-35309980D02*
X114556095Y-34309980D01*
X114318000Y-34309980D01*
X114175142Y-34357600D01*
X114079904Y-34452838D01*
X114032285Y-34548076D01*
X113984666Y-34738552D01*
X113984666Y-34881409D01*
X114032285Y-35071885D01*
X114079904Y-35167123D01*
X114175142Y-35262361D01*
X114318000Y-35309980D01*
X114556095Y-35309980D01*
X113508476Y-35309980D02*
X113318000Y-35309980D01*
X113222761Y-35262361D01*
X113175142Y-35214742D01*
X113079904Y-35071885D01*
X113032285Y-34881409D01*
X113032285Y-34500457D01*
X113079904Y-34405219D01*
X113127523Y-34357600D01*
X113222761Y-34309980D01*
X113413238Y-34309980D01*
X113508476Y-34357600D01*
X113556095Y-34405219D01*
X113603714Y-34500457D01*
X113603714Y-34738552D01*
X113556095Y-34833790D01*
X113508476Y-34881409D01*
X113413238Y-34929028D01*
X113222761Y-34929028D01*
X113127523Y-34881409D01*
X113079904Y-34833790D01*
X113032285Y-34738552D01*
X115438685Y-32820780D02*
X115438685Y-31820780D01*
X115200590Y-31820780D01*
X115057733Y-31868400D01*
X114962495Y-31963638D01*
X114914876Y-32058876D01*
X114867257Y-32249352D01*
X114867257Y-32392209D01*
X114914876Y-32582685D01*
X114962495Y-32677923D01*
X115057733Y-32773161D01*
X115200590Y-32820780D01*
X115438685Y-32820780D01*
X113914876Y-32820780D02*
X114486304Y-32820780D01*
X114200590Y-32820780D02*
X114200590Y-31820780D01*
X114295828Y-31963638D01*
X114391066Y-32058876D01*
X114486304Y-32106495D01*
X112962495Y-32820780D02*
X113533923Y-32820780D01*
X113248209Y-32820780D02*
X113248209Y-31820780D01*
X113343447Y-31963638D01*
X113438685Y-32058876D01*
X113533923Y-32106495D01*
X50241752Y-79887028D02*
X49479847Y-79887028D01*
X49860800Y-80267980D02*
X49860800Y-79506076D01*
X104104019Y-88654704D02*
X104104019Y-88083276D01*
X103104019Y-88368990D02*
X104104019Y-88368990D01*
X104104019Y-87845180D02*
X103104019Y-87178514D01*
X104104019Y-87178514D02*
X103104019Y-87845180D01*
X105644019Y-88059466D02*
X106120209Y-88392800D01*
X105644019Y-88630895D02*
X106644019Y-88630895D01*
X106644019Y-88249942D01*
X106596400Y-88154704D01*
X106548780Y-88107085D01*
X106453542Y-88059466D01*
X106310685Y-88059466D01*
X106215447Y-88107085D01*
X106167828Y-88154704D01*
X106120209Y-88249942D01*
X106120209Y-88630895D01*
X106644019Y-87726133D02*
X105644019Y-87059466D01*
X106644019Y-87059466D02*
X105644019Y-87726133D01*
X101618000Y-88807104D02*
X101665619Y-88902342D01*
X101665619Y-89045200D01*
X101618000Y-89188057D01*
X101522761Y-89283295D01*
X101427523Y-89330914D01*
X101237047Y-89378533D01*
X101094190Y-89378533D01*
X100903714Y-89330914D01*
X100808476Y-89283295D01*
X100713238Y-89188057D01*
X100665619Y-89045200D01*
X100665619Y-88949961D01*
X100713238Y-88807104D01*
X100760857Y-88759485D01*
X101094190Y-88759485D01*
X101094190Y-88949961D01*
X100665619Y-88330914D02*
X101665619Y-88330914D01*
X100665619Y-87759485D01*
X101665619Y-87759485D01*
X100665619Y-87283295D02*
X101665619Y-87283295D01*
X101665619Y-87045200D01*
X101618000Y-86902342D01*
X101522761Y-86807104D01*
X101427523Y-86759485D01*
X101237047Y-86711866D01*
X101094190Y-86711866D01*
X100903714Y-86759485D01*
X100808476Y-86807104D01*
X100713238Y-86902342D01*
X100665619Y-87045200D01*
X100665619Y-87283295D01*
X98506571Y-89280114D02*
X98506571Y-88518209D01*
X98125619Y-88899161D02*
X98887523Y-88899161D01*
X99125619Y-87565828D02*
X99125619Y-88042019D01*
X98649428Y-88089638D01*
X98697047Y-88042019D01*
X98744666Y-87946780D01*
X98744666Y-87708685D01*
X98697047Y-87613447D01*
X98649428Y-87565828D01*
X98554190Y-87518209D01*
X98316095Y-87518209D01*
X98220857Y-87565828D01*
X98173238Y-87613447D01*
X98125619Y-87708685D01*
X98125619Y-87946780D01*
X98173238Y-88042019D01*
X98220857Y-88089638D01*
X99125619Y-87232495D02*
X98125619Y-86899161D01*
X99125619Y-86565828D01*
X68401161Y-41642723D02*
X68448780Y-41785580D01*
X68448780Y-42023676D01*
X68401161Y-42118914D01*
X68353542Y-42166533D01*
X68258304Y-42214152D01*
X68163066Y-42214152D01*
X68067828Y-42166533D01*
X68020209Y-42118914D01*
X67972590Y-42023676D01*
X67924971Y-41833200D01*
X67877352Y-41737961D01*
X67829733Y-41690342D01*
X67734495Y-41642723D01*
X67639257Y-41642723D01*
X67544019Y-41690342D01*
X67496400Y-41737961D01*
X67448780Y-41833200D01*
X67448780Y-42071295D01*
X67496400Y-42214152D01*
X68353542Y-43214152D02*
X68401161Y-43166533D01*
X68448780Y-43023676D01*
X68448780Y-42928438D01*
X68401161Y-42785580D01*
X68305923Y-42690342D01*
X68210685Y-42642723D01*
X68020209Y-42595104D01*
X67877352Y-42595104D01*
X67686876Y-42642723D01*
X67591638Y-42690342D01*
X67496400Y-42785580D01*
X67448780Y-42928438D01*
X67448780Y-43023676D01*
X67496400Y-43166533D01*
X67544019Y-43214152D01*
X68448780Y-44118914D02*
X68448780Y-43642723D01*
X67448780Y-43642723D01*
X65861161Y-41618914D02*
X65908780Y-41761771D01*
X65908780Y-41999866D01*
X65861161Y-42095104D01*
X65813542Y-42142723D01*
X65718304Y-42190342D01*
X65623066Y-42190342D01*
X65527828Y-42142723D01*
X65480209Y-42095104D01*
X65432590Y-41999866D01*
X65384971Y-41809390D01*
X65337352Y-41714152D01*
X65289733Y-41666533D01*
X65194495Y-41618914D01*
X65099257Y-41618914D01*
X65004019Y-41666533D01*
X64956400Y-41714152D01*
X64908780Y-41809390D01*
X64908780Y-42047485D01*
X64956400Y-42190342D01*
X65908780Y-42618914D02*
X64908780Y-42618914D01*
X64908780Y-42857009D01*
X64956400Y-42999866D01*
X65051638Y-43095104D01*
X65146876Y-43142723D01*
X65337352Y-43190342D01*
X65480209Y-43190342D01*
X65670685Y-43142723D01*
X65765923Y-43095104D01*
X65861161Y-42999866D01*
X65908780Y-42857009D01*
X65908780Y-42618914D01*
X65623066Y-43571295D02*
X65623066Y-44047485D01*
X65908780Y-43476057D02*
X64908780Y-43809390D01*
X65908780Y-44142723D01*
X70506228Y-41395085D02*
X70506228Y-42156990D01*
X70887180Y-41776038D02*
X70125276Y-41776038D01*
X69887180Y-43109371D02*
X69887180Y-42633180D01*
X70363371Y-42585561D01*
X70315752Y-42633180D01*
X70268133Y-42728419D01*
X70268133Y-42966514D01*
X70315752Y-43061752D01*
X70363371Y-43109371D01*
X70458609Y-43156990D01*
X70696704Y-43156990D01*
X70791942Y-43109371D01*
X70839561Y-43061752D01*
X70887180Y-42966514D01*
X70887180Y-42728419D01*
X70839561Y-42633180D01*
X70791942Y-42585561D01*
X69887180Y-43442704D02*
X70887180Y-43776038D01*
X69887180Y-44109371D01*
X72474800Y-41969695D02*
X72427180Y-41874457D01*
X72427180Y-41731600D01*
X72474800Y-41588742D01*
X72570038Y-41493504D01*
X72665276Y-41445885D01*
X72855752Y-41398266D01*
X72998609Y-41398266D01*
X73189085Y-41445885D01*
X73284323Y-41493504D01*
X73379561Y-41588742D01*
X73427180Y-41731600D01*
X73427180Y-41826838D01*
X73379561Y-41969695D01*
X73331942Y-42017314D01*
X72998609Y-42017314D01*
X72998609Y-41826838D01*
X73427180Y-42445885D02*
X72427180Y-42445885D01*
X73427180Y-43017314D01*
X72427180Y-43017314D01*
X73427180Y-43493504D02*
X72427180Y-43493504D01*
X72427180Y-43731600D01*
X72474800Y-43874457D01*
X72570038Y-43969695D01*
X72665276Y-44017314D01*
X72855752Y-44064933D01*
X72998609Y-44064933D01*
X73189085Y-44017314D01*
X73284323Y-43969695D01*
X73379561Y-43874457D01*
X73427180Y-43731600D01*
X73427180Y-43493504D01*
X68401161Y-50786723D02*
X68448780Y-50929580D01*
X68448780Y-51167676D01*
X68401161Y-51262914D01*
X68353542Y-51310533D01*
X68258304Y-51358152D01*
X68163066Y-51358152D01*
X68067828Y-51310533D01*
X68020209Y-51262914D01*
X67972590Y-51167676D01*
X67924971Y-50977200D01*
X67877352Y-50881961D01*
X67829733Y-50834342D01*
X67734495Y-50786723D01*
X67639257Y-50786723D01*
X67544019Y-50834342D01*
X67496400Y-50881961D01*
X67448780Y-50977200D01*
X67448780Y-51215295D01*
X67496400Y-51358152D01*
X68353542Y-52358152D02*
X68401161Y-52310533D01*
X68448780Y-52167676D01*
X68448780Y-52072438D01*
X68401161Y-51929580D01*
X68305923Y-51834342D01*
X68210685Y-51786723D01*
X68020209Y-51739104D01*
X67877352Y-51739104D01*
X67686876Y-51786723D01*
X67591638Y-51834342D01*
X67496400Y-51929580D01*
X67448780Y-52072438D01*
X67448780Y-52167676D01*
X67496400Y-52310533D01*
X67544019Y-52358152D01*
X68448780Y-53262914D02*
X68448780Y-52786723D01*
X67448780Y-52786723D01*
X65861161Y-50762914D02*
X65908780Y-50905771D01*
X65908780Y-51143866D01*
X65861161Y-51239104D01*
X65813542Y-51286723D01*
X65718304Y-51334342D01*
X65623066Y-51334342D01*
X65527828Y-51286723D01*
X65480209Y-51239104D01*
X65432590Y-51143866D01*
X65384971Y-50953390D01*
X65337352Y-50858152D01*
X65289733Y-50810533D01*
X65194495Y-50762914D01*
X65099257Y-50762914D01*
X65004019Y-50810533D01*
X64956400Y-50858152D01*
X64908780Y-50953390D01*
X64908780Y-51191485D01*
X64956400Y-51334342D01*
X65908780Y-51762914D02*
X64908780Y-51762914D01*
X64908780Y-52001009D01*
X64956400Y-52143866D01*
X65051638Y-52239104D01*
X65146876Y-52286723D01*
X65337352Y-52334342D01*
X65480209Y-52334342D01*
X65670685Y-52286723D01*
X65765923Y-52239104D01*
X65861161Y-52143866D01*
X65908780Y-52001009D01*
X65908780Y-51762914D01*
X65623066Y-52715295D02*
X65623066Y-53191485D01*
X65908780Y-52620057D02*
X64908780Y-52953390D01*
X65908780Y-53286723D01*
X70506228Y-50539085D02*
X70506228Y-51300990D01*
X70887180Y-50920038D02*
X70125276Y-50920038D01*
X69887180Y-52253371D02*
X69887180Y-51777180D01*
X70363371Y-51729561D01*
X70315752Y-51777180D01*
X70268133Y-51872419D01*
X70268133Y-52110514D01*
X70315752Y-52205752D01*
X70363371Y-52253371D01*
X70458609Y-52300990D01*
X70696704Y-52300990D01*
X70791942Y-52253371D01*
X70839561Y-52205752D01*
X70887180Y-52110514D01*
X70887180Y-51872419D01*
X70839561Y-51777180D01*
X70791942Y-51729561D01*
X69887180Y-52586704D02*
X70887180Y-52920038D01*
X69887180Y-53253371D01*
X72474800Y-51113695D02*
X72427180Y-51018457D01*
X72427180Y-50875600D01*
X72474800Y-50732742D01*
X72570038Y-50637504D01*
X72665276Y-50589885D01*
X72855752Y-50542266D01*
X72998609Y-50542266D01*
X73189085Y-50589885D01*
X73284323Y-50637504D01*
X73379561Y-50732742D01*
X73427180Y-50875600D01*
X73427180Y-50970838D01*
X73379561Y-51113695D01*
X73331942Y-51161314D01*
X72998609Y-51161314D01*
X72998609Y-50970838D01*
X73427180Y-51589885D02*
X72427180Y-51589885D01*
X73427180Y-52161314D01*
X72427180Y-52161314D01*
X73427180Y-52637504D02*
X72427180Y-52637504D01*
X72427180Y-52875600D01*
X72474800Y-53018457D01*
X72570038Y-53113695D01*
X72665276Y-53161314D01*
X72855752Y-53208933D01*
X72998609Y-53208933D01*
X73189085Y-53161314D01*
X73284323Y-53113695D01*
X73379561Y-53018457D01*
X73427180Y-52875600D01*
X73427180Y-52637504D01*
X68401161Y-59727523D02*
X68448780Y-59870380D01*
X68448780Y-60108476D01*
X68401161Y-60203714D01*
X68353542Y-60251333D01*
X68258304Y-60298952D01*
X68163066Y-60298952D01*
X68067828Y-60251333D01*
X68020209Y-60203714D01*
X67972590Y-60108476D01*
X67924971Y-59918000D01*
X67877352Y-59822761D01*
X67829733Y-59775142D01*
X67734495Y-59727523D01*
X67639257Y-59727523D01*
X67544019Y-59775142D01*
X67496400Y-59822761D01*
X67448780Y-59918000D01*
X67448780Y-60156095D01*
X67496400Y-60298952D01*
X68353542Y-61298952D02*
X68401161Y-61251333D01*
X68448780Y-61108476D01*
X68448780Y-61013238D01*
X68401161Y-60870380D01*
X68305923Y-60775142D01*
X68210685Y-60727523D01*
X68020209Y-60679904D01*
X67877352Y-60679904D01*
X67686876Y-60727523D01*
X67591638Y-60775142D01*
X67496400Y-60870380D01*
X67448780Y-61013238D01*
X67448780Y-61108476D01*
X67496400Y-61251333D01*
X67544019Y-61298952D01*
X68448780Y-62203714D02*
X68448780Y-61727523D01*
X67448780Y-61727523D01*
X65861161Y-59703714D02*
X65908780Y-59846571D01*
X65908780Y-60084666D01*
X65861161Y-60179904D01*
X65813542Y-60227523D01*
X65718304Y-60275142D01*
X65623066Y-60275142D01*
X65527828Y-60227523D01*
X65480209Y-60179904D01*
X65432590Y-60084666D01*
X65384971Y-59894190D01*
X65337352Y-59798952D01*
X65289733Y-59751333D01*
X65194495Y-59703714D01*
X65099257Y-59703714D01*
X65004019Y-59751333D01*
X64956400Y-59798952D01*
X64908780Y-59894190D01*
X64908780Y-60132285D01*
X64956400Y-60275142D01*
X65908780Y-60703714D02*
X64908780Y-60703714D01*
X64908780Y-60941809D01*
X64956400Y-61084666D01*
X65051638Y-61179904D01*
X65146876Y-61227523D01*
X65337352Y-61275142D01*
X65480209Y-61275142D01*
X65670685Y-61227523D01*
X65765923Y-61179904D01*
X65861161Y-61084666D01*
X65908780Y-60941809D01*
X65908780Y-60703714D01*
X65623066Y-61656095D02*
X65623066Y-62132285D01*
X65908780Y-61560857D02*
X64908780Y-61894190D01*
X65908780Y-62227523D01*
X70506228Y-59479885D02*
X70506228Y-60241790D01*
X70887180Y-59860838D02*
X70125276Y-59860838D01*
X69887180Y-61194171D02*
X69887180Y-60717980D01*
X70363371Y-60670361D01*
X70315752Y-60717980D01*
X70268133Y-60813219D01*
X70268133Y-61051314D01*
X70315752Y-61146552D01*
X70363371Y-61194171D01*
X70458609Y-61241790D01*
X70696704Y-61241790D01*
X70791942Y-61194171D01*
X70839561Y-61146552D01*
X70887180Y-61051314D01*
X70887180Y-60813219D01*
X70839561Y-60717980D01*
X70791942Y-60670361D01*
X69887180Y-61527504D02*
X70887180Y-61860838D01*
X69887180Y-62194171D01*
X72474800Y-60054495D02*
X72427180Y-59959257D01*
X72427180Y-59816400D01*
X72474800Y-59673542D01*
X72570038Y-59578304D01*
X72665276Y-59530685D01*
X72855752Y-59483066D01*
X72998609Y-59483066D01*
X73189085Y-59530685D01*
X73284323Y-59578304D01*
X73379561Y-59673542D01*
X73427180Y-59816400D01*
X73427180Y-59911638D01*
X73379561Y-60054495D01*
X73331942Y-60102114D01*
X72998609Y-60102114D01*
X72998609Y-59911638D01*
X73427180Y-60530685D02*
X72427180Y-60530685D01*
X73427180Y-61102114D01*
X72427180Y-61102114D01*
X73427180Y-61578304D02*
X72427180Y-61578304D01*
X72427180Y-61816400D01*
X72474800Y-61959257D01*
X72570038Y-62054495D01*
X72665276Y-62102114D01*
X72855752Y-62149733D01*
X72998609Y-62149733D01*
X73189085Y-62102114D01*
X73284323Y-62054495D01*
X73379561Y-61959257D01*
X73427180Y-61816400D01*
X73427180Y-61578304D01*
X70557028Y-68420685D02*
X70557028Y-69182590D01*
X70937980Y-68801638D02*
X70176076Y-68801638D01*
X69937980Y-70134971D02*
X69937980Y-69658780D01*
X70414171Y-69611161D01*
X70366552Y-69658780D01*
X70318933Y-69754019D01*
X70318933Y-69992114D01*
X70366552Y-70087352D01*
X70414171Y-70134971D01*
X70509409Y-70182590D01*
X70747504Y-70182590D01*
X70842742Y-70134971D01*
X70890361Y-70087352D01*
X70937980Y-69992114D01*
X70937980Y-69754019D01*
X70890361Y-69658780D01*
X70842742Y-69611161D01*
X69937980Y-70468304D02*
X70937980Y-70801638D01*
X69937980Y-71134971D01*
X65911961Y-68644514D02*
X65959580Y-68787371D01*
X65959580Y-69025466D01*
X65911961Y-69120704D01*
X65864342Y-69168323D01*
X65769104Y-69215942D01*
X65673866Y-69215942D01*
X65578628Y-69168323D01*
X65531009Y-69120704D01*
X65483390Y-69025466D01*
X65435771Y-68834990D01*
X65388152Y-68739752D01*
X65340533Y-68692133D01*
X65245295Y-68644514D01*
X65150057Y-68644514D01*
X65054819Y-68692133D01*
X65007200Y-68739752D01*
X64959580Y-68834990D01*
X64959580Y-69073085D01*
X65007200Y-69215942D01*
X65959580Y-69644514D02*
X64959580Y-69644514D01*
X64959580Y-69882609D01*
X65007200Y-70025466D01*
X65102438Y-70120704D01*
X65197676Y-70168323D01*
X65388152Y-70215942D01*
X65531009Y-70215942D01*
X65721485Y-70168323D01*
X65816723Y-70120704D01*
X65911961Y-70025466D01*
X65959580Y-69882609D01*
X65959580Y-69644514D01*
X65673866Y-70596895D02*
X65673866Y-71073085D01*
X65959580Y-70501657D02*
X64959580Y-70834990D01*
X65959580Y-71168323D01*
X68451961Y-68668323D02*
X68499580Y-68811180D01*
X68499580Y-69049276D01*
X68451961Y-69144514D01*
X68404342Y-69192133D01*
X68309104Y-69239752D01*
X68213866Y-69239752D01*
X68118628Y-69192133D01*
X68071009Y-69144514D01*
X68023390Y-69049276D01*
X67975771Y-68858800D01*
X67928152Y-68763561D01*
X67880533Y-68715942D01*
X67785295Y-68668323D01*
X67690057Y-68668323D01*
X67594819Y-68715942D01*
X67547200Y-68763561D01*
X67499580Y-68858800D01*
X67499580Y-69096895D01*
X67547200Y-69239752D01*
X68404342Y-70239752D02*
X68451961Y-70192133D01*
X68499580Y-70049276D01*
X68499580Y-69954038D01*
X68451961Y-69811180D01*
X68356723Y-69715942D01*
X68261485Y-69668323D01*
X68071009Y-69620704D01*
X67928152Y-69620704D01*
X67737676Y-69668323D01*
X67642438Y-69715942D01*
X67547200Y-69811180D01*
X67499580Y-69954038D01*
X67499580Y-70049276D01*
X67547200Y-70192133D01*
X67594819Y-70239752D01*
X68499580Y-71144514D02*
X68499580Y-70668323D01*
X67499580Y-70668323D01*
X72525600Y-68995295D02*
X72477980Y-68900057D01*
X72477980Y-68757200D01*
X72525600Y-68614342D01*
X72620838Y-68519104D01*
X72716076Y-68471485D01*
X72906552Y-68423866D01*
X73049409Y-68423866D01*
X73239885Y-68471485D01*
X73335123Y-68519104D01*
X73430361Y-68614342D01*
X73477980Y-68757200D01*
X73477980Y-68852438D01*
X73430361Y-68995295D01*
X73382742Y-69042914D01*
X73049409Y-69042914D01*
X73049409Y-68852438D01*
X73477980Y-69471485D02*
X72477980Y-69471485D01*
X73477980Y-70042914D01*
X72477980Y-70042914D01*
X73477980Y-70519104D02*
X72477980Y-70519104D01*
X72477980Y-70757200D01*
X72525600Y-70900057D01*
X72620838Y-70995295D01*
X72716076Y-71042914D01*
X72906552Y-71090533D01*
X73049409Y-71090533D01*
X73239885Y-71042914D01*
X73335123Y-70995295D01*
X73430361Y-70900057D01*
X73477980Y-70757200D01*
X73477980Y-70519104D01*
X72525600Y-76970895D02*
X72477980Y-76875657D01*
X72477980Y-76732800D01*
X72525600Y-76589942D01*
X72620838Y-76494704D01*
X72716076Y-76447085D01*
X72906552Y-76399466D01*
X73049409Y-76399466D01*
X73239885Y-76447085D01*
X73335123Y-76494704D01*
X73430361Y-76589942D01*
X73477980Y-76732800D01*
X73477980Y-76828038D01*
X73430361Y-76970895D01*
X73382742Y-77018514D01*
X73049409Y-77018514D01*
X73049409Y-76828038D01*
X73477980Y-77447085D02*
X72477980Y-77447085D01*
X73477980Y-78018514D01*
X72477980Y-78018514D01*
X73477980Y-78494704D02*
X72477980Y-78494704D01*
X72477980Y-78732800D01*
X72525600Y-78875657D01*
X72620838Y-78970895D01*
X72716076Y-79018514D01*
X72906552Y-79066133D01*
X73049409Y-79066133D01*
X73239885Y-79018514D01*
X73335123Y-78970895D01*
X73430361Y-78875657D01*
X73477980Y-78732800D01*
X73477980Y-78494704D01*
X68451961Y-76643923D02*
X68499580Y-76786780D01*
X68499580Y-77024876D01*
X68451961Y-77120114D01*
X68404342Y-77167733D01*
X68309104Y-77215352D01*
X68213866Y-77215352D01*
X68118628Y-77167733D01*
X68071009Y-77120114D01*
X68023390Y-77024876D01*
X67975771Y-76834400D01*
X67928152Y-76739161D01*
X67880533Y-76691542D01*
X67785295Y-76643923D01*
X67690057Y-76643923D01*
X67594819Y-76691542D01*
X67547200Y-76739161D01*
X67499580Y-76834400D01*
X67499580Y-77072495D01*
X67547200Y-77215352D01*
X68404342Y-78215352D02*
X68451961Y-78167733D01*
X68499580Y-78024876D01*
X68499580Y-77929638D01*
X68451961Y-77786780D01*
X68356723Y-77691542D01*
X68261485Y-77643923D01*
X68071009Y-77596304D01*
X67928152Y-77596304D01*
X67737676Y-77643923D01*
X67642438Y-77691542D01*
X67547200Y-77786780D01*
X67499580Y-77929638D01*
X67499580Y-78024876D01*
X67547200Y-78167733D01*
X67594819Y-78215352D01*
X68499580Y-79120114D02*
X68499580Y-78643923D01*
X67499580Y-78643923D01*
X70557028Y-76396285D02*
X70557028Y-77158190D01*
X70937980Y-76777238D02*
X70176076Y-76777238D01*
X69937980Y-78110571D02*
X69937980Y-77634380D01*
X70414171Y-77586761D01*
X70366552Y-77634380D01*
X70318933Y-77729619D01*
X70318933Y-77967714D01*
X70366552Y-78062952D01*
X70414171Y-78110571D01*
X70509409Y-78158190D01*
X70747504Y-78158190D01*
X70842742Y-78110571D01*
X70890361Y-78062952D01*
X70937980Y-77967714D01*
X70937980Y-77729619D01*
X70890361Y-77634380D01*
X70842742Y-77586761D01*
X69937980Y-78443904D02*
X70937980Y-78777238D01*
X69937980Y-79110571D01*
X62568800Y-77021695D02*
X62521180Y-76926457D01*
X62521180Y-76783600D01*
X62568800Y-76640742D01*
X62664038Y-76545504D01*
X62759276Y-76497885D01*
X62949752Y-76450266D01*
X63092609Y-76450266D01*
X63283085Y-76497885D01*
X63378323Y-76545504D01*
X63473561Y-76640742D01*
X63521180Y-76783600D01*
X63521180Y-76878838D01*
X63473561Y-77021695D01*
X63425942Y-77069314D01*
X63092609Y-77069314D01*
X63092609Y-76878838D01*
X63521180Y-77497885D02*
X62521180Y-77497885D01*
X63521180Y-78069314D01*
X62521180Y-78069314D01*
X63521180Y-78545504D02*
X62521180Y-78545504D01*
X62521180Y-78783600D01*
X62568800Y-78926457D01*
X62664038Y-79021695D01*
X62759276Y-79069314D01*
X62949752Y-79116933D01*
X63092609Y-79116933D01*
X63283085Y-79069314D01*
X63378323Y-79021695D01*
X63473561Y-78926457D01*
X63521180Y-78783600D01*
X63521180Y-78545504D01*
X65911961Y-76620114D02*
X65959580Y-76762971D01*
X65959580Y-77001066D01*
X65911961Y-77096304D01*
X65864342Y-77143923D01*
X65769104Y-77191542D01*
X65673866Y-77191542D01*
X65578628Y-77143923D01*
X65531009Y-77096304D01*
X65483390Y-77001066D01*
X65435771Y-76810590D01*
X65388152Y-76715352D01*
X65340533Y-76667733D01*
X65245295Y-76620114D01*
X65150057Y-76620114D01*
X65054819Y-76667733D01*
X65007200Y-76715352D01*
X64959580Y-76810590D01*
X64959580Y-77048685D01*
X65007200Y-77191542D01*
X65959580Y-77620114D02*
X64959580Y-77620114D01*
X64959580Y-77858209D01*
X65007200Y-78001066D01*
X65102438Y-78096304D01*
X65197676Y-78143923D01*
X65388152Y-78191542D01*
X65531009Y-78191542D01*
X65721485Y-78143923D01*
X65816723Y-78096304D01*
X65911961Y-78001066D01*
X65959580Y-77858209D01*
X65959580Y-77620114D01*
X65673866Y-78572495D02*
X65673866Y-79048685D01*
X65959580Y-78477257D02*
X64959580Y-78810590D01*
X65959580Y-79143923D01*
%TO.C,G\u002A\u002A\u002A*%
G36*
X77934397Y-37274094D02*
G01*
X77952461Y-37278850D01*
X77954483Y-37287578D01*
X77951803Y-37294043D01*
X77939812Y-37323469D01*
X77919992Y-37372347D01*
X77893893Y-37436852D01*
X77863062Y-37513161D01*
X77829047Y-37597450D01*
X77711189Y-37889663D01*
X77756377Y-37999819D01*
X77764863Y-38020502D01*
X77784522Y-38068395D01*
X77799166Y-38104040D01*
X77806120Y-38120919D01*
X77805130Y-38122852D01*
X77786127Y-38127426D01*
X77748021Y-38130572D01*
X77696814Y-38131698D01*
X77582953Y-38131532D01*
X77415578Y-37711454D01*
X77388479Y-37643299D01*
X77350557Y-37547416D01*
X77316872Y-37461642D01*
X77288608Y-37389026D01*
X77266951Y-37332622D01*
X77253088Y-37295480D01*
X77248203Y-37280652D01*
X77248793Y-37279534D01*
X77266208Y-37275332D01*
X77302904Y-37273318D01*
X77352271Y-37273920D01*
X77456338Y-37277910D01*
X77519646Y-37457928D01*
X77527247Y-37479436D01*
X77550044Y-37542624D01*
X77569521Y-37594710D01*
X77583815Y-37630783D01*
X77591059Y-37645934D01*
X77593333Y-37644668D01*
X77604024Y-37625086D01*
X77621074Y-37585918D01*
X77642679Y-37531437D01*
X77667037Y-37465916D01*
X77734908Y-37277910D01*
X77848485Y-37273915D01*
X77896308Y-37272798D01*
X77934397Y-37274094D01*
G37*
G36*
X76167129Y-36732098D02*
G01*
X76238970Y-36733199D01*
X76292164Y-36736110D01*
X76333040Y-36741562D01*
X76367930Y-36750285D01*
X76403166Y-36763012D01*
X76459938Y-36788709D01*
X76547209Y-36845326D01*
X76610003Y-36912900D01*
X76647952Y-36990978D01*
X76660683Y-37079106D01*
X76660581Y-37090957D01*
X76652725Y-37172205D01*
X76630799Y-37240509D01*
X76592598Y-37297809D01*
X76535918Y-37346047D01*
X76458555Y-37387163D01*
X76358304Y-37423099D01*
X76232961Y-37455797D01*
X76168415Y-37471876D01*
X76088528Y-37497702D01*
X76033404Y-37525005D01*
X76001478Y-37554635D01*
X75991184Y-37587446D01*
X75994031Y-37612812D01*
X76016513Y-37656203D01*
X76058522Y-37687815D01*
X76116618Y-37707680D01*
X76187364Y-37715829D01*
X76267321Y-37712292D01*
X76353051Y-37697100D01*
X76441116Y-37670283D01*
X76528078Y-37631874D01*
X76610499Y-37581901D01*
X76641490Y-37565431D01*
X76662278Y-37567799D01*
X76665273Y-37574547D01*
X76669659Y-37604733D01*
X76671873Y-37651863D01*
X76671472Y-37709134D01*
X76667515Y-37837316D01*
X76600818Y-37862046D01*
X76553475Y-37876940D01*
X76491890Y-37892672D01*
X76430028Y-37905619D01*
X76417612Y-37907803D01*
X76277726Y-37923506D01*
X76145310Y-37922396D01*
X76023637Y-37905161D01*
X75915979Y-37872492D01*
X75825610Y-37825077D01*
X75755803Y-37763606D01*
X75713943Y-37701615D01*
X75684204Y-37619982D01*
X75676342Y-37535172D01*
X75690059Y-37452441D01*
X75725062Y-37377045D01*
X75781054Y-37314240D01*
X75790595Y-37306656D01*
X75845779Y-37271705D01*
X75915832Y-37241076D01*
X76004905Y-37213191D01*
X76117149Y-37186472D01*
X76182457Y-37171076D01*
X76254203Y-37148055D01*
X76303205Y-37122398D01*
X76332160Y-37092569D01*
X76343760Y-37057026D01*
X76343794Y-37042029D01*
X76326550Y-37001047D01*
X76284273Y-36967203D01*
X76218259Y-36941687D01*
X76215677Y-36941006D01*
X76141890Y-36932573D01*
X76055036Y-36939228D01*
X75963198Y-36959232D01*
X75874458Y-36990847D01*
X75796901Y-37032333D01*
X75780479Y-37042417D01*
X75749381Y-37056958D01*
X75731103Y-37059002D01*
X75727969Y-37053401D01*
X75722807Y-37025284D01*
X75719246Y-36979767D01*
X75717918Y-36923356D01*
X75717918Y-36795858D01*
X75830640Y-36763836D01*
X75879641Y-36751025D01*
X75929712Y-36741407D01*
X75983711Y-36735574D01*
X76049427Y-36732711D01*
X76134648Y-36732003D01*
X76167129Y-36732098D01*
G37*
G36*
X73177026Y-37481586D02*
G01*
X73154243Y-37563903D01*
X73118061Y-37644371D01*
X73110768Y-37657642D01*
X73044400Y-37747301D01*
X72958270Y-37821430D01*
X72856515Y-37877085D01*
X72743269Y-37911319D01*
X72702247Y-37918064D01*
X72572476Y-37925238D01*
X72446489Y-37911728D01*
X72328868Y-37878688D01*
X72224190Y-37827271D01*
X72137034Y-37758631D01*
X72090820Y-37703879D01*
X72036559Y-37607855D01*
X71999540Y-37498182D01*
X71980444Y-37379886D01*
X71980369Y-37361428D01*
X72303417Y-37361428D01*
X72306328Y-37409074D01*
X72314638Y-37450172D01*
X72329438Y-37494226D01*
X72340561Y-37521130D01*
X72382819Y-37595586D01*
X72433894Y-37653645D01*
X72489321Y-37689843D01*
X72533952Y-37703203D01*
X72610351Y-37706364D01*
X72685484Y-37688527D01*
X72752079Y-37651812D01*
X72802867Y-37598342D01*
X72803103Y-37597985D01*
X72843397Y-37517675D01*
X72867527Y-37427369D01*
X72876197Y-37332052D01*
X72870108Y-37236711D01*
X72849963Y-37146332D01*
X72816464Y-37065900D01*
X72770314Y-37000401D01*
X72712214Y-36954821D01*
X72662528Y-36936644D01*
X72589964Y-36929737D01*
X72515596Y-36940036D01*
X72448043Y-36966129D01*
X72395922Y-37006607D01*
X72375210Y-37032699D01*
X72338887Y-37099907D01*
X72316171Y-37182219D01*
X72305398Y-37284742D01*
X72304815Y-37297731D01*
X72303417Y-37361428D01*
X71980369Y-37361428D01*
X71979951Y-37257994D01*
X71998741Y-37137531D01*
X72037495Y-37023524D01*
X72074437Y-36959519D01*
X72137021Y-36884859D01*
X72212106Y-36819841D01*
X72291820Y-36772242D01*
X72391427Y-36737527D01*
X72510312Y-36717699D01*
X72633354Y-36716376D01*
X72754106Y-36733109D01*
X72866125Y-36767450D01*
X72962967Y-36818950D01*
X72978223Y-36829775D01*
X73041749Y-36885148D01*
X73093535Y-36951761D01*
X73140086Y-37037641D01*
X73149576Y-37058442D01*
X73166251Y-37101618D01*
X73176894Y-37144869D01*
X73183380Y-37197279D01*
X73187580Y-37267929D01*
X73188098Y-37280521D01*
X73187974Y-37332052D01*
X73187835Y-37389699D01*
X73177026Y-37481586D01*
G37*
G36*
X63325341Y-37589031D02*
G01*
X63294401Y-37654047D01*
X63229817Y-37740714D01*
X63146221Y-37814004D01*
X63047949Y-37870352D01*
X62939339Y-37906195D01*
X62895193Y-37914336D01*
X62776805Y-37923769D01*
X62658109Y-37917180D01*
X62547088Y-37895341D01*
X62451726Y-37859024D01*
X62373981Y-37809064D01*
X62292629Y-37729640D01*
X62228058Y-37633633D01*
X62184224Y-37525970D01*
X62173637Y-37479744D01*
X62162861Y-37383859D01*
X62162396Y-37305237D01*
X62487628Y-37305237D01*
X62491967Y-37385507D01*
X62512061Y-37488003D01*
X62547517Y-37573126D01*
X62597247Y-37638501D01*
X62660161Y-37681749D01*
X62727127Y-37702242D01*
X62808712Y-37703755D01*
X62886474Y-37681299D01*
X62954250Y-37635835D01*
X62986343Y-37598411D01*
X63024126Y-37525345D01*
X63048095Y-37438507D01*
X63058205Y-37343859D01*
X63054409Y-37247362D01*
X63036661Y-37154975D01*
X63004915Y-37072660D01*
X62959125Y-37006378D01*
X62926149Y-36976855D01*
X62855756Y-36941303D01*
X62771980Y-36929497D01*
X62691674Y-36940205D01*
X62622344Y-36973911D01*
X62564748Y-37031525D01*
X62517640Y-37113951D01*
X62506822Y-37140702D01*
X62495011Y-37184211D01*
X62489110Y-37235889D01*
X62487628Y-37305237D01*
X62162396Y-37305237D01*
X62162245Y-37279766D01*
X62171623Y-37178380D01*
X62190831Y-37090616D01*
X62196517Y-37073407D01*
X62246300Y-36970236D01*
X62316645Y-36882580D01*
X62405022Y-36811771D01*
X62508904Y-36759138D01*
X62625763Y-36726013D01*
X62753068Y-36713725D01*
X62888294Y-36723605D01*
X62890699Y-36723981D01*
X63009777Y-36752748D01*
X63111262Y-36799651D01*
X63199586Y-36866728D01*
X63244168Y-36913109D01*
X63296006Y-36987470D01*
X63333850Y-37074533D01*
X63361229Y-37181162D01*
X63361384Y-37181953D01*
X63375595Y-37318540D01*
X63373353Y-37343859D01*
X63363692Y-37452968D01*
X63325341Y-37589031D01*
G37*
G36*
X78567847Y-37899588D02*
G01*
X78565673Y-37899586D01*
X78513754Y-37897623D01*
X78477103Y-37892572D01*
X78461729Y-37885244D01*
X78461367Y-37884354D01*
X78444974Y-37880266D01*
X78409353Y-37892281D01*
X78349594Y-37908827D01*
X78273324Y-37910538D01*
X78197813Y-37895458D01*
X78133927Y-37864676D01*
X78113272Y-37848602D01*
X78057033Y-37783015D01*
X78019330Y-37700152D01*
X78002018Y-37603686D01*
X78000850Y-37564764D01*
X78002920Y-37543982D01*
X78219734Y-37543982D01*
X78220779Y-37611525D01*
X78235581Y-37674641D01*
X78262595Y-37726219D01*
X78300274Y-37759149D01*
X78309014Y-37763148D01*
X78370330Y-37774901D01*
X78433927Y-37762369D01*
X78444535Y-37757517D01*
X78454199Y-37748668D01*
X78459920Y-37732362D01*
X78462481Y-37703636D01*
X78462665Y-37657525D01*
X78461254Y-37589064D01*
X78457402Y-37428278D01*
X78404017Y-37410812D01*
X78374032Y-37403353D01*
X78315611Y-37404229D01*
X78268747Y-37427008D01*
X78237468Y-37470253D01*
X78233992Y-37479122D01*
X78219734Y-37543982D01*
X78002920Y-37543982D01*
X78010377Y-37469105D01*
X78037095Y-37387081D01*
X78079563Y-37322181D01*
X78136343Y-37277896D01*
X78179223Y-37263068D01*
X78248211Y-37257233D01*
X78321134Y-37266920D01*
X78387774Y-37291573D01*
X78412995Y-37304732D01*
X78443638Y-37319846D01*
X78458125Y-37325732D01*
X78460244Y-37316347D01*
X78462311Y-37284641D01*
X78463716Y-37235832D01*
X78464234Y-37175436D01*
X78464234Y-37025140D01*
X78669182Y-37025140D01*
X78669182Y-37899588D01*
X78567847Y-37899588D01*
G37*
G36*
X68353639Y-36987566D02*
G01*
X68385418Y-37028364D01*
X68438462Y-37095741D01*
X68484913Y-37153838D01*
X68522260Y-37199559D01*
X68547988Y-37229804D01*
X68559584Y-37241475D01*
X68563213Y-37233095D01*
X68566816Y-37200834D01*
X68569600Y-37147633D01*
X68571397Y-37076920D01*
X68572033Y-36992120D01*
X68572033Y-36738211D01*
X68872625Y-36738211D01*
X68872625Y-37913252D01*
X68572033Y-37913252D01*
X68572033Y-37719396D01*
X68571769Y-37646960D01*
X68570465Y-37589794D01*
X68567444Y-37549824D01*
X68562026Y-37521779D01*
X68553534Y-37500389D01*
X68541291Y-37480382D01*
X68534583Y-37470765D01*
X68514949Y-37445495D01*
X68503717Y-37435491D01*
X68502293Y-37436578D01*
X68488133Y-37453464D01*
X68461239Y-37488269D01*
X68424064Y-37537742D01*
X68379060Y-37598627D01*
X68328680Y-37667673D01*
X68160474Y-37899588D01*
X67976851Y-37899588D01*
X67958610Y-37899553D01*
X67893739Y-37898798D01*
X67841226Y-37897213D01*
X67806059Y-37894994D01*
X67793228Y-37892338D01*
X67800527Y-37880660D01*
X67822127Y-37849883D01*
X67855905Y-37803004D01*
X67899724Y-37742964D01*
X67951451Y-37672703D01*
X68008951Y-37595162D01*
X68063804Y-37521356D01*
X68116991Y-37449619D01*
X68162846Y-37387587D01*
X68199119Y-37338312D01*
X68223560Y-37304843D01*
X68233919Y-37290232D01*
X68231125Y-37281397D01*
X68213448Y-37253532D01*
X68181815Y-37209955D01*
X68138411Y-37153559D01*
X68085420Y-37087233D01*
X68025027Y-37013868D01*
X67977366Y-36956590D01*
X67922291Y-36889926D01*
X67875345Y-36832565D01*
X67838889Y-36787413D01*
X67815284Y-36757376D01*
X67806891Y-36745360D01*
X67807317Y-36744862D01*
X67824453Y-36742261D01*
X67862923Y-36740149D01*
X67917640Y-36738730D01*
X67983517Y-36738211D01*
X68160143Y-36738211D01*
X68353639Y-36987566D01*
G37*
G36*
X64514045Y-37913252D02*
G01*
X64199790Y-37913252D01*
X64199299Y-37711719D01*
X64199202Y-37679576D01*
X64198576Y-37609969D01*
X64196860Y-37560837D01*
X64193347Y-37527186D01*
X64187329Y-37504025D01*
X64178100Y-37486359D01*
X64164953Y-37469196D01*
X64151349Y-37453736D01*
X64132056Y-37439574D01*
X64119810Y-37445967D01*
X64119390Y-37446615D01*
X64106820Y-37464757D01*
X64081204Y-37500999D01*
X64045197Y-37551609D01*
X64001452Y-37612857D01*
X63952624Y-37681010D01*
X63796724Y-37898291D01*
X63608048Y-37898940D01*
X63538778Y-37898783D01*
X63482562Y-37897380D01*
X63447711Y-37894395D01*
X63431057Y-37889535D01*
X63429432Y-37882509D01*
X63439073Y-37868645D01*
X63463037Y-37835562D01*
X63498940Y-37786557D01*
X63544521Y-37724702D01*
X63597522Y-37653072D01*
X63655682Y-37574740D01*
X63711866Y-37499027D01*
X63763795Y-37428717D01*
X63807887Y-37368673D01*
X63842016Y-37321801D01*
X63864053Y-37291010D01*
X63871872Y-37279209D01*
X63866162Y-37271238D01*
X63845153Y-37244725D01*
X63810906Y-37202449D01*
X63765758Y-37147277D01*
X63712047Y-37082074D01*
X63652110Y-37009706D01*
X63432349Y-36745043D01*
X63605799Y-36741208D01*
X63673544Y-36740663D01*
X63733238Y-36742209D01*
X63775545Y-36745696D01*
X63795515Y-36750871D01*
X63798981Y-36754423D01*
X63817906Y-36776895D01*
X63849669Y-36816363D01*
X63891624Y-36869488D01*
X63941128Y-36932934D01*
X63995538Y-37003364D01*
X64019959Y-37035015D01*
X64071791Y-37101421D01*
X64117191Y-37158548D01*
X64153633Y-37203276D01*
X64178592Y-37232484D01*
X64189543Y-37243055D01*
X64192771Y-37230350D01*
X64195583Y-37194553D01*
X64197806Y-37139902D01*
X64199265Y-37070632D01*
X64199790Y-36990982D01*
X64199790Y-36738211D01*
X64514045Y-36738211D01*
X64514045Y-37913252D01*
G37*
G36*
X75553959Y-36943160D02*
G01*
X75376337Y-36943160D01*
X75376337Y-37708303D01*
X75553959Y-37708303D01*
X75553959Y-37899588D01*
X74884459Y-37899588D01*
X74884459Y-37709607D01*
X74969855Y-37705539D01*
X75055250Y-37701471D01*
X75058882Y-37322316D01*
X75062514Y-36943160D01*
X74884459Y-36943160D01*
X74884459Y-36738211D01*
X75553959Y-36738211D01*
X75553959Y-36943160D01*
G37*
G36*
X73881039Y-37018308D02*
G01*
X73902185Y-37062062D01*
X73939360Y-37137893D01*
X73971917Y-37202912D01*
X73998083Y-37253650D01*
X74016086Y-37286638D01*
X74024151Y-37298405D01*
X74027106Y-37294980D01*
X74040672Y-37271456D01*
X74063212Y-37228554D01*
X74092955Y-37169748D01*
X74128132Y-37098509D01*
X74166973Y-37018308D01*
X74301386Y-36738211D01*
X74665847Y-36738211D01*
X74665847Y-37899588D01*
X74365688Y-37899588D01*
X74358424Y-37149182D01*
X74249444Y-37387753D01*
X74140465Y-37626323D01*
X74030832Y-37625983D01*
X73921200Y-37625644D01*
X73811894Y-37385307D01*
X73702588Y-37144971D01*
X73698956Y-37522280D01*
X73695324Y-37899588D01*
X73381501Y-37899588D01*
X73381501Y-36738211D01*
X73746334Y-36738211D01*
X73881039Y-37018308D01*
G37*
G36*
X70993603Y-37069545D02*
G01*
X70997262Y-37400879D01*
X71195379Y-37069968D01*
X71393497Y-36739057D01*
X71588198Y-36738634D01*
X71782900Y-36738211D01*
X71782900Y-37899588D01*
X71496384Y-37899588D01*
X71492762Y-37499946D01*
X71489139Y-37100304D01*
X71014483Y-37899588D01*
X70703502Y-37899588D01*
X70703502Y-36738211D01*
X70989945Y-36738211D01*
X70993603Y-37069545D01*
G37*
G36*
X70443900Y-37899588D02*
G01*
X69596778Y-37899588D01*
X69596778Y-37681554D01*
X69866627Y-37677849D01*
X70136477Y-37674145D01*
X70136477Y-37387216D01*
X69887122Y-37383492D01*
X69637768Y-37379768D01*
X69637768Y-37161772D01*
X70143308Y-37161772D01*
X70143308Y-36956824D01*
X69596778Y-36956824D01*
X69596778Y-36738211D01*
X70443900Y-36738211D01*
X70443900Y-37899588D01*
G37*
G36*
X67670258Y-37899588D02*
G01*
X66836799Y-37899588D01*
X66836799Y-37680976D01*
X67356003Y-37680976D01*
X67356003Y-36738211D01*
X67670258Y-36738211D01*
X67670258Y-37899588D01*
G37*
G36*
X66727493Y-36943160D02*
G01*
X66549871Y-36943160D01*
X66549871Y-37708303D01*
X66727493Y-37708303D01*
X66727493Y-37899588D01*
X66057994Y-37899588D01*
X66057994Y-37708303D01*
X66235616Y-37708303D01*
X66235616Y-36943160D01*
X66057994Y-36943160D01*
X66057994Y-36738211D01*
X66727493Y-36738211D01*
X66727493Y-36943160D01*
G37*
G36*
X65050085Y-37069545D02*
G01*
X65053744Y-37400879D01*
X65251861Y-37069968D01*
X65449979Y-36739057D01*
X65839381Y-36738211D01*
X65839381Y-37899588D01*
X65552453Y-37899588D01*
X65552453Y-37088202D01*
X65070711Y-37899588D01*
X64759984Y-37899588D01*
X64759984Y-36738211D01*
X65046427Y-36738211D01*
X65050085Y-37069545D01*
G37*
G36*
X61183383Y-37066428D02*
G01*
X61187042Y-37394644D01*
X61383577Y-37066428D01*
X61580112Y-36738211D01*
X61972679Y-36738211D01*
X61972679Y-37899588D01*
X61686157Y-37899588D01*
X61678919Y-37088800D01*
X61439812Y-37493784D01*
X61200705Y-37898769D01*
X61046993Y-37899179D01*
X60893281Y-37899588D01*
X60893281Y-36738211D01*
X61179724Y-36738211D01*
X61183383Y-37066428D01*
G37*
G36*
X60742986Y-36314650D02*
G01*
X60742986Y-34912615D01*
X61642586Y-34912615D01*
X61648247Y-35035999D01*
X61677343Y-35146529D01*
X61730468Y-35245984D01*
X61808221Y-35336139D01*
X61901582Y-35410350D01*
X62022360Y-35473823D01*
X62158329Y-35515362D01*
X62204648Y-35522999D01*
X62290920Y-35530667D01*
X62388544Y-35533695D01*
X62488152Y-35532090D01*
X62580374Y-35525858D01*
X62655842Y-35515007D01*
X62678343Y-35510029D01*
X62753101Y-35490201D01*
X62834686Y-35464892D01*
X62911892Y-35437722D01*
X62973513Y-35412316D01*
X63011087Y-35394826D01*
X63011087Y-35381503D01*
X63134056Y-35381503D01*
X63163359Y-35394826D01*
X63226283Y-35423435D01*
X63276406Y-35444874D01*
X63348513Y-35472844D01*
X63414153Y-35495585D01*
X63450972Y-35505501D01*
X63539958Y-35520847D01*
X63641408Y-35529879D01*
X63745823Y-35532228D01*
X63843701Y-35527528D01*
X63925541Y-35515408D01*
X63977143Y-35502015D01*
X64110727Y-35449190D01*
X64229129Y-35374582D01*
X64330801Y-35279817D01*
X64414197Y-35166520D01*
X64477770Y-35036316D01*
X64519974Y-34890831D01*
X64525532Y-34859450D01*
X64535673Y-34766995D01*
X64540328Y-34662767D01*
X64539473Y-34556397D01*
X64533087Y-34457516D01*
X64521148Y-34375757D01*
X64477042Y-34222746D01*
X64413157Y-34088197D01*
X64402075Y-34072812D01*
X64691668Y-34072812D01*
X64811221Y-34076760D01*
X64930775Y-34080707D01*
X64934347Y-34623822D01*
X64934603Y-34662767D01*
X64937920Y-35166936D01*
X64691668Y-35166936D01*
X64691668Y-35508518D01*
X65620769Y-35508518D01*
X65620769Y-35166936D01*
X65374517Y-35166936D01*
X65378090Y-34623822D01*
X65381662Y-34080707D01*
X65501216Y-34076760D01*
X65620769Y-34072812D01*
X65620769Y-33745957D01*
X65852844Y-33745957D01*
X65856360Y-34623822D01*
X65859876Y-35501686D01*
X66291796Y-35501686D01*
X66898284Y-34367636D01*
X66905416Y-35508518D01*
X67107937Y-35508518D01*
X67141220Y-35508395D01*
X67209155Y-35507322D01*
X67264884Y-35505322D01*
X67303369Y-35502612D01*
X67319568Y-35499409D01*
X67320007Y-35497963D01*
X67321571Y-35476027D01*
X67323040Y-35429719D01*
X67324392Y-35361359D01*
X67325601Y-35273269D01*
X67326644Y-35167772D01*
X67327498Y-35047187D01*
X67328137Y-34913838D01*
X67328538Y-34770044D01*
X67328677Y-34618129D01*
X67328677Y-34613335D01*
X67535777Y-34613335D01*
X67536098Y-34618129D01*
X67547187Y-34783581D01*
X67564311Y-34888324D01*
X67599457Y-35020277D01*
X67648896Y-35134597D01*
X67714656Y-35235672D01*
X67798765Y-35327890D01*
X67811900Y-35340162D01*
X67910262Y-35418230D01*
X68014220Y-35474803D01*
X68132445Y-35514737D01*
X68175956Y-35523490D01*
X68259546Y-35532276D01*
X68353980Y-35535205D01*
X68449855Y-35532377D01*
X68537765Y-35523887D01*
X68608307Y-35509832D01*
X68645784Y-35498271D01*
X69173594Y-35498271D01*
X69173941Y-35498806D01*
X69190899Y-35501877D01*
X69230399Y-35504526D01*
X69288333Y-35506597D01*
X69360591Y-35507936D01*
X69443066Y-35508390D01*
X69712916Y-35508261D01*
X69945439Y-35190719D01*
X70177962Y-34873176D01*
X70242615Y-34869012D01*
X70307267Y-34864848D01*
X70307267Y-35508518D01*
X70523602Y-35508518D01*
X70569202Y-35508315D01*
X70638147Y-35507163D01*
X70694341Y-35505163D01*
X70732927Y-35502513D01*
X70749046Y-35499409D01*
X70749485Y-35497963D01*
X70751049Y-35476027D01*
X70752518Y-35429719D01*
X70753870Y-35361359D01*
X70755079Y-35273269D01*
X70756123Y-35167772D01*
X70756976Y-35047187D01*
X70757615Y-34913838D01*
X70758016Y-34770044D01*
X70758155Y-34618129D01*
X70758155Y-34101202D01*
X70894788Y-34101202D01*
X71386665Y-34101202D01*
X71386665Y-35508518D01*
X71837553Y-35508518D01*
X71837553Y-34292488D01*
X72370420Y-34292488D01*
X72403514Y-34292488D01*
X72413735Y-34290535D01*
X72448170Y-34274675D01*
X72495982Y-34245295D01*
X72552193Y-34205312D01*
X72579377Y-34185272D01*
X72665347Y-34129802D01*
X72744165Y-34093606D01*
X72822317Y-34074188D01*
X72906288Y-34069053D01*
X72981454Y-34076326D01*
X73075616Y-34106778D01*
X73156236Y-34159770D01*
X73222296Y-34234075D01*
X73272781Y-34328465D01*
X73306675Y-34441711D01*
X73322960Y-34572585D01*
X73324395Y-34653088D01*
X73312726Y-34786305D01*
X73283137Y-34901327D01*
X73236252Y-34997295D01*
X73172692Y-35073347D01*
X73093082Y-35128624D01*
X72998043Y-35162265D01*
X72888198Y-35173408D01*
X72882235Y-35173379D01*
X72826731Y-35171356D01*
X72782894Y-35164187D01*
X72738981Y-35148972D01*
X72683249Y-35122814D01*
X72681673Y-35122027D01*
X72621493Y-35088264D01*
X72560505Y-35048239D01*
X72511679Y-35010446D01*
X72473012Y-34979701D01*
X72436966Y-34956998D01*
X72412621Y-34948324D01*
X72404752Y-34948753D01*
X72396265Y-34952751D01*
X72390490Y-34964293D01*
X72386906Y-34987337D01*
X72384990Y-35025837D01*
X72384223Y-35083751D01*
X72384083Y-35165035D01*
X72384083Y-35381746D01*
X72490747Y-35430503D01*
X72491987Y-35431069D01*
X72560731Y-35459347D01*
X72638328Y-35486797D01*
X72708219Y-35507552D01*
X72719488Y-35510314D01*
X72827323Y-35527955D01*
X72947058Y-35534704D01*
X73066827Y-35530377D01*
X73174764Y-35514789D01*
X73200015Y-35508518D01*
X73941695Y-35508518D01*
X77822060Y-35508518D01*
X77822060Y-33745957D01*
X76674347Y-33745957D01*
X76674347Y-34100741D01*
X77026175Y-34104387D01*
X77378004Y-34108034D01*
X77381915Y-34241251D01*
X77385826Y-34374467D01*
X76729000Y-34374467D01*
X76729000Y-34743375D01*
X77384836Y-34743375D01*
X77384836Y-35139610D01*
X76674347Y-35139610D01*
X76674347Y-35508518D01*
X76414745Y-35508518D01*
X76414745Y-33745957D01*
X75963857Y-33745957D01*
X75963857Y-35139610D01*
X75267031Y-35139610D01*
X75267031Y-35508518D01*
X75103072Y-35508518D01*
X75103072Y-33745957D01*
X73941695Y-33745957D01*
X73941695Y-34101202D01*
X74652184Y-34101202D01*
X74652184Y-34374467D01*
X73995554Y-34374467D01*
X73999367Y-34555506D01*
X73999770Y-34574657D01*
X74003179Y-34736544D01*
X74327682Y-34740207D01*
X74652184Y-34743870D01*
X74652184Y-35139610D01*
X73941695Y-35139610D01*
X73941695Y-35508518D01*
X73200015Y-35508518D01*
X73216765Y-35504358D01*
X73346346Y-35454660D01*
X73464457Y-35382613D01*
X73567710Y-35291057D01*
X73652717Y-35182836D01*
X73716090Y-35060789D01*
X73745149Y-34972038D01*
X73770916Y-34847174D01*
X73785538Y-34711969D01*
X73788547Y-34574657D01*
X73779473Y-34443472D01*
X73757849Y-34326646D01*
X73731520Y-34245185D01*
X73675837Y-34126096D01*
X73604211Y-34015067D01*
X73520949Y-33918465D01*
X73430358Y-33842654D01*
X73359304Y-33800972D01*
X73237750Y-33752356D01*
X73102917Y-33721319D01*
X72960248Y-33708979D01*
X72815187Y-33716451D01*
X72746337Y-33727718D01*
X72653412Y-33749677D01*
X72561314Y-33777791D01*
X72478850Y-33809311D01*
X72414825Y-33841485D01*
X72370420Y-33868525D01*
X72370420Y-34292488D01*
X71837553Y-34292488D01*
X71837553Y-34101202D01*
X72329430Y-34101202D01*
X72329430Y-33745957D01*
X70894788Y-33745957D01*
X70894788Y-34101202D01*
X70758155Y-34101202D01*
X70758155Y-33745957D01*
X70331178Y-33746195D01*
X70321897Y-33746201D01*
X70181606Y-33746779D01*
X70065300Y-33748483D01*
X69969837Y-33751664D01*
X69892077Y-33756676D01*
X69828876Y-33763868D01*
X69777093Y-33773594D01*
X69733587Y-33786206D01*
X69695215Y-33802054D01*
X69658837Y-33821491D01*
X69607832Y-33856995D01*
X69542589Y-33919395D01*
X69489610Y-33989937D01*
X69455808Y-34060485D01*
X69450783Y-34077353D01*
X69434587Y-34171400D01*
X69433022Y-34274195D01*
X69445203Y-34377310D01*
X69470245Y-34472311D01*
X69507265Y-34550770D01*
X69521293Y-34570377D01*
X69560075Y-34615245D01*
X69608550Y-34664287D01*
X69631300Y-34684843D01*
X69658737Y-34709634D01*
X69702653Y-34743416D01*
X69710232Y-34749035D01*
X69714982Y-34756116D01*
X69714880Y-34766579D01*
X69708441Y-34782702D01*
X69694183Y-34806766D01*
X69670621Y-34841048D01*
X69636273Y-34887828D01*
X69589655Y-34949385D01*
X69529284Y-35027998D01*
X69453676Y-35125947D01*
X69405895Y-35187942D01*
X69343104Y-35269881D01*
X69287346Y-35343184D01*
X69240570Y-35405262D01*
X69204721Y-35453528D01*
X69181747Y-35485394D01*
X69173594Y-35498271D01*
X68645784Y-35498271D01*
X68649937Y-35496990D01*
X68756383Y-35452498D01*
X68849492Y-35392638D01*
X68938749Y-35311724D01*
X69004851Y-35235450D01*
X69077087Y-35122908D01*
X69129889Y-34997539D01*
X69164517Y-34856151D01*
X69182232Y-34695554D01*
X69182800Y-34684843D01*
X69180955Y-34509498D01*
X69157739Y-34348382D01*
X69113763Y-34202508D01*
X69049639Y-34072889D01*
X68965979Y-33960540D01*
X68863394Y-33866473D01*
X68742496Y-33791702D01*
X68603897Y-33737242D01*
X68560216Y-33727130D01*
X68477539Y-33716886D01*
X68383245Y-33712823D01*
X68286384Y-33714935D01*
X68196001Y-33723212D01*
X68121146Y-33737648D01*
X68008195Y-33778216D01*
X67888676Y-33846295D01*
X67784800Y-33934547D01*
X67697587Y-34041114D01*
X67628058Y-34164136D01*
X67577233Y-34301753D01*
X67546133Y-34452106D01*
X67535777Y-34613335D01*
X67328677Y-34613335D01*
X67328677Y-33745957D01*
X66775315Y-33746793D01*
X66283437Y-34663319D01*
X66279840Y-34204638D01*
X66276242Y-33745957D01*
X65852844Y-33745957D01*
X65620769Y-33745957D01*
X64691668Y-33745957D01*
X64691668Y-34072812D01*
X64402075Y-34072812D01*
X64329884Y-33972588D01*
X64227600Y-33876352D01*
X64106684Y-33799921D01*
X63967515Y-33743728D01*
X63932025Y-33733376D01*
X63884461Y-33722698D01*
X63834507Y-33716464D01*
X63773868Y-33713761D01*
X63694250Y-33713679D01*
X63687134Y-33713762D01*
X63558802Y-33720259D01*
X63445904Y-33737468D01*
X63338408Y-33767506D01*
X63226283Y-33812491D01*
X63134056Y-33854121D01*
X63134056Y-34073304D01*
X63134124Y-34140524D01*
X63134686Y-34203360D01*
X63136267Y-34245943D01*
X63139391Y-34272211D01*
X63144583Y-34286100D01*
X63152369Y-34291547D01*
X63163272Y-34292488D01*
X63170645Y-34291117D01*
X63200878Y-34277232D01*
X63242791Y-34251577D01*
X63289657Y-34218111D01*
X63319250Y-34195965D01*
X63408218Y-34137172D01*
X63488795Y-34097972D01*
X63566394Y-34076108D01*
X63646428Y-34069321D01*
X63730672Y-34076704D01*
X63826286Y-34107485D01*
X63908705Y-34162180D01*
X63977878Y-34240754D01*
X64033750Y-34343168D01*
X64050618Y-34394500D01*
X64066209Y-34476725D01*
X64075079Y-34570668D01*
X64076831Y-34667995D01*
X64071069Y-34760372D01*
X64057394Y-34839465D01*
X64037319Y-34902705D01*
X63987070Y-34999311D01*
X63918819Y-35076514D01*
X63833908Y-35132952D01*
X63733680Y-35167267D01*
X63698848Y-35173165D01*
X63596523Y-35173236D01*
X63492464Y-35147481D01*
X63385603Y-35095549D01*
X63274871Y-35017090D01*
X63265702Y-35009769D01*
X63222572Y-34978544D01*
X63185669Y-34956607D01*
X63162149Y-34948324D01*
X63154776Y-34948731D01*
X63146308Y-34952703D01*
X63140529Y-34964225D01*
X63136927Y-34987251D01*
X63134990Y-35025738D01*
X63134204Y-35083641D01*
X63134056Y-35164914D01*
X63134056Y-35381503D01*
X63011087Y-35381503D01*
X63011087Y-35178407D01*
X63011020Y-35106993D01*
X63010449Y-35046169D01*
X63008811Y-35005293D01*
X63005540Y-34980401D01*
X63000075Y-34967528D01*
X62991849Y-34962712D01*
X62980301Y-34961988D01*
X62960142Y-34966868D01*
X62922786Y-34984647D01*
X62881242Y-35010969D01*
X62801270Y-35063243D01*
X62671500Y-35128085D01*
X62540745Y-35170173D01*
X62412414Y-35188519D01*
X62289918Y-35182138D01*
X62262381Y-35176968D01*
X62189071Y-35152493D01*
X62138589Y-35115384D01*
X62109364Y-35064620D01*
X62108511Y-35061961D01*
X62103624Y-35006685D01*
X62125297Y-34957143D01*
X62173680Y-34912980D01*
X62177006Y-34910914D01*
X62210501Y-34895847D01*
X62263039Y-34877391D01*
X62328090Y-34857692D01*
X62399124Y-34838895D01*
X62455435Y-34824444D01*
X62594226Y-34781612D01*
X62708628Y-34733518D01*
X62800680Y-34678483D01*
X62872421Y-34614826D01*
X62925892Y-34540866D01*
X62963132Y-34454925D01*
X62986182Y-34355320D01*
X62992438Y-34286758D01*
X62982565Y-34174035D01*
X62947739Y-34068952D01*
X62889198Y-33973334D01*
X62808178Y-33889004D01*
X62705915Y-33817787D01*
X62583646Y-33761506D01*
X62566483Y-33755323D01*
X62530170Y-33743499D01*
X62495703Y-33735291D01*
X62457247Y-33730053D01*
X62408968Y-33727140D01*
X62345033Y-33725909D01*
X62259607Y-33725715D01*
X62160679Y-33727424D01*
X62038905Y-33735786D01*
X61934553Y-33751939D01*
X61842226Y-33776801D01*
X61756531Y-33811288D01*
X61706245Y-33834949D01*
X61702474Y-34043223D01*
X61698702Y-34251498D01*
X61733184Y-34251498D01*
X61752431Y-34247619D01*
X61790913Y-34230846D01*
X61832599Y-34205312D01*
X61910716Y-34154670D01*
X62001538Y-34110695D01*
X62098634Y-34080851D01*
X62163403Y-34068424D01*
X62258113Y-34061068D01*
X62342701Y-34067335D01*
X62414430Y-34086047D01*
X62470568Y-34116023D01*
X62508379Y-34156084D01*
X62525128Y-34205052D01*
X62518082Y-34261746D01*
X62508307Y-34283427D01*
X62487131Y-34308115D01*
X62453244Y-34329920D01*
X62403066Y-34350555D01*
X62333015Y-34371737D01*
X62239510Y-34395181D01*
X62236176Y-34395971D01*
X62081842Y-34438482D01*
X61953051Y-34487060D01*
X61848513Y-34542706D01*
X61766938Y-34606425D01*
X61707039Y-34679218D01*
X61667526Y-34762089D01*
X61647109Y-34856040D01*
X61642586Y-34912615D01*
X60742986Y-34912615D01*
X60742986Y-32830519D01*
X78737499Y-32830519D01*
X78737499Y-36314650D01*
X60742986Y-36314650D01*
G37*
G36*
X66398516Y-31236682D02*
G01*
X66375351Y-31417993D01*
X66338680Y-31579055D01*
X66286987Y-31724134D01*
X66218758Y-31857493D01*
X66132477Y-31983397D01*
X66033867Y-32095884D01*
X65904681Y-32207635D01*
X65759456Y-32298718D01*
X65597209Y-32369640D01*
X65416953Y-32420907D01*
X65217703Y-32453024D01*
X65206784Y-32454080D01*
X65134168Y-32457112D01*
X65044314Y-32456012D01*
X64945385Y-32451275D01*
X64845545Y-32443396D01*
X64752959Y-32432869D01*
X64675790Y-32420189D01*
X64623937Y-32408593D01*
X64448269Y-32352472D01*
X64287043Y-32273679D01*
X64141381Y-32172953D01*
X64012403Y-32051033D01*
X63901227Y-31908659D01*
X63853585Y-31829560D01*
X63785660Y-31679723D01*
X63735001Y-31515284D01*
X63701689Y-31340461D01*
X63685805Y-31159471D01*
X63686343Y-31098852D01*
X64413619Y-31098852D01*
X64417313Y-31210399D01*
X64426367Y-31318227D01*
X64440217Y-31414551D01*
X64458305Y-31491582D01*
X64463263Y-31507137D01*
X64518312Y-31636742D01*
X64591439Y-31746548D01*
X64681922Y-31835827D01*
X64789040Y-31903849D01*
X64912069Y-31949884D01*
X64961403Y-31960240D01*
X65077177Y-31964448D01*
X65199411Y-31942160D01*
X65328175Y-31893365D01*
X65399626Y-31848021D01*
X65472358Y-31776333D01*
X65537966Y-31684713D01*
X65593759Y-31576962D01*
X65637048Y-31456882D01*
X65642661Y-31436970D01*
X65652504Y-31397003D01*
X65659499Y-31357088D01*
X65664108Y-31311750D01*
X65666797Y-31255515D01*
X65668028Y-31182907D01*
X65668267Y-31088453D01*
X65668056Y-31030154D01*
X65666764Y-30943168D01*
X65663993Y-30875689D01*
X65659379Y-30822692D01*
X65652561Y-30779151D01*
X65643178Y-30740040D01*
X65626411Y-30684897D01*
X65570671Y-30548024D01*
X65501318Y-30433488D01*
X65418923Y-30341847D01*
X65324057Y-30273656D01*
X65217291Y-30229473D01*
X65099195Y-30209853D01*
X65040093Y-30208499D01*
X64910887Y-30222059D01*
X64795729Y-30258815D01*
X64694962Y-30318397D01*
X64608929Y-30400434D01*
X64537972Y-30504556D01*
X64482434Y-30630391D01*
X64442657Y-30777569D01*
X64418985Y-30945719D01*
X64415843Y-30991374D01*
X64413619Y-31098852D01*
X63686343Y-31098852D01*
X63687429Y-30976533D01*
X63706643Y-30795863D01*
X63743526Y-30621681D01*
X63798160Y-30458203D01*
X63870625Y-30309648D01*
X63880032Y-30294028D01*
X63935159Y-30214693D01*
X64002552Y-30132152D01*
X64074203Y-30055695D01*
X64142106Y-29994615D01*
X64196075Y-29953987D01*
X64339135Y-29866127D01*
X64493463Y-29799052D01*
X64661407Y-29752038D01*
X64845313Y-29724361D01*
X65047530Y-29715296D01*
X65069810Y-29715407D01*
X65279263Y-29728321D01*
X65471842Y-29762676D01*
X65647513Y-29818454D01*
X65806242Y-29895636D01*
X65947995Y-29994201D01*
X66072738Y-30114129D01*
X66180437Y-30255403D01*
X66271059Y-30418002D01*
X66312761Y-30518350D01*
X66361236Y-30683348D01*
X66392294Y-30861340D01*
X66405076Y-31046833D01*
X66403665Y-31088453D01*
X66398721Y-31234330D01*
X66398516Y-31236682D01*
G37*
G36*
X78696509Y-32406958D02*
G01*
X77986019Y-32406958D01*
X77986019Y-31510313D01*
X77923193Y-31425768D01*
X77916478Y-31416801D01*
X77886449Y-31378450D01*
X77863258Y-31351580D01*
X77851461Y-31341543D01*
X77851435Y-31341546D01*
X77841807Y-31352710D01*
X77818054Y-31384028D01*
X77781745Y-31433330D01*
X77734451Y-31498445D01*
X77677741Y-31577199D01*
X77613185Y-31667423D01*
X77542354Y-31766945D01*
X77466816Y-31873594D01*
X77091076Y-32405324D01*
X76670931Y-32406141D01*
X76623901Y-32406179D01*
X76523638Y-32405882D01*
X76434207Y-32405105D01*
X76358908Y-32403908D01*
X76301039Y-32402352D01*
X76263899Y-32400497D01*
X76250785Y-32398406D01*
X76252512Y-32394814D01*
X76264478Y-32376475D01*
X76288253Y-32342281D01*
X76324328Y-32291553D01*
X76373197Y-32223610D01*
X76435354Y-32137773D01*
X76511290Y-32033361D01*
X76601498Y-31909695D01*
X76706473Y-31766095D01*
X76826706Y-31601880D01*
X76962690Y-31416372D01*
X77019019Y-31339555D01*
X77077287Y-31260072D01*
X77130172Y-31187910D01*
X77174979Y-31126748D01*
X77209013Y-31080263D01*
X77229578Y-31052134D01*
X77276016Y-30988488D01*
X77046913Y-30710052D01*
X77011434Y-30666927D01*
X76862471Y-30485690D01*
X76730747Y-30325131D01*
X76616294Y-30185291D01*
X76519144Y-30066207D01*
X76439329Y-29967921D01*
X76376880Y-29890469D01*
X76331830Y-29833893D01*
X76304210Y-29798231D01*
X76294052Y-29783522D01*
X76297988Y-29780839D01*
X76325935Y-29776992D01*
X76379930Y-29773955D01*
X76459182Y-29771754D01*
X76562898Y-29770417D01*
X76690287Y-29769969D01*
X77091076Y-29769990D01*
X77527034Y-30337517D01*
X77560395Y-30380923D01*
X77642489Y-30487535D01*
X77719096Y-30586742D01*
X77788628Y-30676503D01*
X77849494Y-30754776D01*
X77900104Y-30819520D01*
X77938870Y-30868693D01*
X77964200Y-30900253D01*
X77974506Y-30912160D01*
X77975860Y-30909016D01*
X77978218Y-30883631D01*
X77980367Y-30835208D01*
X77982252Y-30766520D01*
X77983816Y-30680343D01*
X77985003Y-30579450D01*
X77985756Y-30466615D01*
X77986019Y-30344612D01*
X77986019Y-29769949D01*
X78696509Y-29769949D01*
X78696509Y-32406958D01*
G37*
G36*
X76004847Y-32406958D02*
G01*
X74132980Y-32406958D01*
X74132980Y-31901417D01*
X75294190Y-31901417D01*
X75297689Y-30839099D01*
X75301189Y-29776780D01*
X76004847Y-29769488D01*
X76004847Y-32406958D01*
G37*
G36*
X73900705Y-30220836D02*
G01*
X73504470Y-30220836D01*
X73504470Y-31941887D01*
X73536086Y-31949822D01*
X73560710Y-31952519D01*
X73606554Y-31954160D01*
X73666608Y-31954528D01*
X73734229Y-31953498D01*
X73900756Y-31949239D01*
X73900731Y-32178214D01*
X73900705Y-32407189D01*
X73145810Y-32403658D01*
X72390915Y-32400126D01*
X72387130Y-32189398D01*
X72386664Y-32153674D01*
X72386890Y-32082191D01*
X72388677Y-32023927D01*
X72391835Y-31983578D01*
X72396174Y-31965841D01*
X72396501Y-31965556D01*
X72415754Y-31960860D01*
X72456273Y-31957344D01*
X72512326Y-31955343D01*
X72578180Y-31955194D01*
X72579985Y-31955216D01*
X72646953Y-31955323D01*
X72705185Y-31954082D01*
X72748489Y-31951712D01*
X72770669Y-31948429D01*
X72774063Y-31946451D01*
X72778324Y-31940554D01*
X72781933Y-31929251D01*
X72784945Y-31910551D01*
X72787412Y-31882460D01*
X72789389Y-31842986D01*
X72790928Y-31790135D01*
X72792084Y-31721915D01*
X72792910Y-31636333D01*
X72793459Y-31531395D01*
X72793784Y-31405110D01*
X72793941Y-31255485D01*
X72793981Y-31080525D01*
X72793981Y-30221567D01*
X72390915Y-30214005D01*
X72390915Y-29763117D01*
X73145810Y-29759586D01*
X73900705Y-29756054D01*
X73900705Y-30220836D01*
G37*
G36*
X70156972Y-30517524D02*
G01*
X70157004Y-30623118D01*
X70157211Y-30771378D01*
X70157653Y-30895416D01*
X70158379Y-30997142D01*
X70159435Y-31078470D01*
X70160872Y-31141310D01*
X70162738Y-31187573D01*
X70165081Y-31219172D01*
X70167950Y-31238017D01*
X70171394Y-31246020D01*
X70175461Y-31245093D01*
X70178092Y-31241779D01*
X70194365Y-31217449D01*
X70221329Y-31174557D01*
X70256660Y-31116882D01*
X70298032Y-31048208D01*
X70343122Y-30972316D01*
X70381656Y-30907011D01*
X70434122Y-30818083D01*
X70495246Y-30714470D01*
X70562316Y-30600768D01*
X70632623Y-30481571D01*
X70703456Y-30361474D01*
X70772104Y-30245073D01*
X71051915Y-29770601D01*
X71485724Y-29770275D01*
X71919532Y-29769949D01*
X71919532Y-32406958D01*
X71277551Y-32406958D01*
X71270527Y-30574822D01*
X70954916Y-31111734D01*
X70940119Y-31136905D01*
X70863091Y-31267921D01*
X70781735Y-31406270D01*
X70699079Y-31546804D01*
X70618154Y-31684372D01*
X70541986Y-31813827D01*
X70473606Y-31930020D01*
X70416041Y-32027803D01*
X70192778Y-32406958D01*
X69514798Y-32406958D01*
X69514798Y-29769949D01*
X70156972Y-29769949D01*
X70156972Y-30517524D01*
G37*
G36*
X68940941Y-32406958D02*
G01*
X68230452Y-32406958D01*
X68230308Y-31959486D01*
X68230165Y-31512014D01*
X68168623Y-31430035D01*
X68163570Y-31423358D01*
X68132927Y-31385170D01*
X68108362Y-31358246D01*
X68094801Y-31348055D01*
X68094789Y-31348056D01*
X68084566Y-31358946D01*
X68060166Y-31389970D01*
X68023185Y-31438959D01*
X67975215Y-31503745D01*
X67917853Y-31582161D01*
X67852692Y-31672039D01*
X67781328Y-31771210D01*
X67705355Y-31877507D01*
X67328188Y-32406958D01*
X66904097Y-32406958D01*
X66874625Y-32406956D01*
X66761865Y-32406851D01*
X66673118Y-32406470D01*
X66605690Y-32405651D01*
X66556885Y-32404231D01*
X66524007Y-32402047D01*
X66504361Y-32398935D01*
X66495251Y-32394734D01*
X66493982Y-32389279D01*
X66497859Y-32382409D01*
X66498914Y-32380960D01*
X66516597Y-32356769D01*
X66547584Y-32314460D01*
X66589304Y-32257543D01*
X66639180Y-32189527D01*
X66694640Y-32113920D01*
X66753109Y-32034232D01*
X66812013Y-31953972D01*
X66868779Y-31876650D01*
X66920831Y-31805775D01*
X66932735Y-31789565D01*
X66985502Y-31717599D01*
X67039001Y-31644484D01*
X67087591Y-31577937D01*
X67125625Y-31525678D01*
X67152209Y-31489166D01*
X67196607Y-31428432D01*
X67249191Y-31356690D01*
X67305487Y-31280043D01*
X67361020Y-31204591D01*
X67365441Y-31198581D01*
X67412813Y-31132716D01*
X67452986Y-31074246D01*
X67483632Y-31026764D01*
X67502423Y-30993866D01*
X67507031Y-30979147D01*
X67502883Y-30973854D01*
X67482799Y-30948921D01*
X67448114Y-30906188D01*
X67400599Y-30847822D01*
X67342023Y-30775988D01*
X67274157Y-30692853D01*
X67198770Y-30600585D01*
X67117632Y-30501350D01*
X67032513Y-30397314D01*
X66945183Y-30290644D01*
X66857412Y-30183507D01*
X66770969Y-30078069D01*
X66768883Y-30075526D01*
X66707145Y-29999839D01*
X66651596Y-29930994D01*
X66604482Y-29871834D01*
X66568049Y-29825203D01*
X66544542Y-29793941D01*
X66536208Y-29780894D01*
X66537297Y-29780085D01*
X66557539Y-29777385D01*
X66600765Y-29774981D01*
X66663592Y-29772966D01*
X66742638Y-29771430D01*
X66834521Y-29770464D01*
X66935858Y-29770158D01*
X67335508Y-29770367D01*
X67741504Y-30299609D01*
X67744239Y-30303175D01*
X67826202Y-30409900D01*
X67904232Y-30511290D01*
X67976518Y-30605008D01*
X68041250Y-30688714D01*
X68096617Y-30760072D01*
X68140808Y-30816743D01*
X68172013Y-30856389D01*
X68188420Y-30876673D01*
X68229341Y-30924494D01*
X68229897Y-30347222D01*
X68230452Y-29769949D01*
X68940941Y-29769949D01*
X68940941Y-32406958D01*
G37*
G36*
X61494465Y-30514345D02*
G01*
X61494528Y-30596206D01*
X61494923Y-30731373D01*
X61495647Y-30856556D01*
X61496667Y-30969277D01*
X61497948Y-31067059D01*
X61499453Y-31147424D01*
X61501150Y-31207895D01*
X61503002Y-31245994D01*
X61504975Y-31259244D01*
X61510965Y-31253427D01*
X61529344Y-31227731D01*
X61557111Y-31185086D01*
X61591749Y-31129390D01*
X61630739Y-31064543D01*
X61647027Y-31037032D01*
X61694897Y-30956212D01*
X61743439Y-30874306D01*
X61787791Y-30799515D01*
X61823090Y-30740040D01*
X61850536Y-30693782D01*
X61889369Y-30628264D01*
X61936683Y-30548391D01*
X61989752Y-30458763D01*
X62045852Y-30363985D01*
X62102256Y-30268658D01*
X62107674Y-30259500D01*
X62161924Y-30167828D01*
X62213797Y-30080225D01*
X62260985Y-30000583D01*
X62301184Y-29932791D01*
X62332087Y-29880741D01*
X62351388Y-29848322D01*
X62398450Y-29769568D01*
X62827746Y-29773174D01*
X62882651Y-29773719D01*
X62983451Y-29775184D01*
X63073240Y-29777090D01*
X63148757Y-29779333D01*
X63206737Y-29781807D01*
X63243917Y-29784407D01*
X63257034Y-29787028D01*
X63257034Y-29789151D01*
X63257032Y-29812968D01*
X63257031Y-29861568D01*
X63257030Y-29933060D01*
X63257029Y-30025552D01*
X63257028Y-30137153D01*
X63257027Y-30265971D01*
X63257027Y-30410115D01*
X63257026Y-30567693D01*
X63257026Y-30736813D01*
X63257025Y-30915585D01*
X63257025Y-32406958D01*
X62628515Y-32406958D01*
X62628515Y-31498351D01*
X62628502Y-31453261D01*
X62628231Y-31293380D01*
X62627630Y-31144812D01*
X62626727Y-31009559D01*
X62625547Y-30889622D01*
X62624118Y-30787004D01*
X62622466Y-30703705D01*
X62620617Y-30641728D01*
X62618599Y-30603074D01*
X62616438Y-30589744D01*
X62610411Y-30596305D01*
X62591639Y-30623739D01*
X62562108Y-30670034D01*
X62523496Y-30732469D01*
X62477483Y-30808321D01*
X62425745Y-30894871D01*
X62369963Y-30989395D01*
X62313544Y-31085549D01*
X62241519Y-31208223D01*
X62162092Y-31343436D01*
X62078647Y-31485433D01*
X61994565Y-31628460D01*
X61913227Y-31766762D01*
X61838015Y-31894586D01*
X61540464Y-32400126D01*
X61196457Y-32403777D01*
X60852450Y-32407427D01*
X60855787Y-31092104D01*
X60859123Y-29776780D01*
X61176794Y-29773113D01*
X61494465Y-29769445D01*
X61494465Y-30514345D01*
G37*
G36*
X68410626Y-34077195D02*
G01*
X68453501Y-34087591D01*
X68503633Y-34110476D01*
X68523224Y-34121303D01*
X68591145Y-34174656D01*
X68643953Y-34245860D01*
X68682407Y-34336580D01*
X68707268Y-34448483D01*
X68719295Y-34583235D01*
X68720267Y-34676736D01*
X68708864Y-34814789D01*
X68681027Y-34931610D01*
X68636553Y-35027723D01*
X68575240Y-35103654D01*
X68496886Y-35159928D01*
X68473643Y-35169502D01*
X68426090Y-35177511D01*
X68359020Y-35177682D01*
X68334766Y-35176045D01*
X68255105Y-35159832D01*
X68188811Y-35125829D01*
X68133285Y-35071692D01*
X68085930Y-34995079D01*
X68044147Y-34893645D01*
X68031325Y-34854325D01*
X68020380Y-34810184D01*
X68013929Y-34763436D01*
X68010917Y-34705853D01*
X68010291Y-34629205D01*
X68014066Y-34525113D01*
X68032080Y-34393068D01*
X68064931Y-34283949D01*
X68112615Y-34197763D01*
X68175127Y-34134517D01*
X68252463Y-34094218D01*
X68344620Y-34076873D01*
X68359887Y-34076095D01*
X68410626Y-34077195D01*
G37*
G36*
X70307267Y-34527942D02*
G01*
X70173715Y-34522577D01*
X70115551Y-34518919D01*
X70043651Y-34507815D01*
X69990256Y-34488240D01*
X69950265Y-34458046D01*
X69918576Y-34415084D01*
X69913886Y-34406311D01*
X69896376Y-34350983D01*
X69890577Y-34287410D01*
X69896662Y-34226485D01*
X69914805Y-34179102D01*
X69934398Y-34154318D01*
X69967793Y-34129123D01*
X70013842Y-34111502D01*
X70077400Y-34099758D01*
X70163319Y-34092194D01*
X70307267Y-34083386D01*
X70307267Y-34527942D01*
G37*
%TD*%
M02*
