%TF.GenerationSoftware,KiCad,Pcbnew,(6.0.8)*%
%TF.CreationDate,2022-11-21T21:43:47+01:00*%
%TF.ProjectId,WeatherStation_ArduinoNano_Shield,57656174-6865-4725-9374-6174696f6e5f,rev?*%
%TF.SameCoordinates,Original*%
%TF.FileFunction,Soldermask,Bot*%
%TF.FilePolarity,Negative*%
%FSLAX46Y46*%
G04 Gerber Fmt 4.6, Leading zero omitted, Abs format (unit mm)*
G04 Created by KiCad (PCBNEW (6.0.8)) date 2022-11-21 21:43:47*
%MOMM*%
%LPD*%
G01*
G04 APERTURE LIST*
G04 Aperture macros list*
%AMRoundRect*
0 Rectangle with rounded corners*
0 $1 Rounding radius*
0 $2 $3 $4 $5 $6 $7 $8 $9 X,Y pos of 4 corners*
0 Add a 4 corners polygon primitive as box body*
4,1,4,$2,$3,$4,$5,$6,$7,$8,$9,$2,$3,0*
0 Add four circle primitives for the rounded corners*
1,1,$1+$1,$2,$3*
1,1,$1+$1,$4,$5*
1,1,$1+$1,$6,$7*
1,1,$1+$1,$8,$9*
0 Add four rect primitives between the rounded corners*
20,1,$1+$1,$2,$3,$4,$5,0*
20,1,$1+$1,$4,$5,$6,$7,0*
20,1,$1+$1,$6,$7,$8,$9,0*
20,1,$1+$1,$8,$9,$2,$3,0*%
G04 Aperture macros list end*
%ADD10R,2.200000X2.200000*%
%ADD11O,2.200000X2.200000*%
%ADD12C,1.400000*%
%ADD13O,1.400000X1.400000*%
%ADD14C,2.000000*%
%ADD15RoundRect,0.250000X0.600000X0.725000X-0.600000X0.725000X-0.600000X-0.725000X0.600000X-0.725000X0*%
%ADD16O,1.700000X1.950000*%
%ADD17RoundRect,0.250000X-0.725000X0.600000X-0.725000X-0.600000X0.725000X-0.600000X0.725000X0.600000X0*%
%ADD18O,1.950000X1.700000*%
%ADD19R,1.600000X1.600000*%
%ADD20C,1.600000*%
%ADD21C,5.600000*%
%ADD22R,1.905000X2.000000*%
%ADD23O,1.905000X2.000000*%
%ADD24RoundRect,0.250000X-0.600000X-0.600000X0.600000X-0.600000X0.600000X0.600000X-0.600000X0.600000X0*%
%ADD25C,1.700000*%
%ADD26R,3.000000X3.000000*%
%ADD27C,3.000000*%
%ADD28O,1.600000X1.600000*%
%ADD29RoundRect,0.250000X-0.600000X-0.725000X0.600000X-0.725000X0.600000X0.725000X-0.600000X0.725000X0*%
%ADD30R,1.800000X1.800000*%
%ADD31C,1.800000*%
%ADD32RoundRect,0.250000X0.725000X-0.600000X0.725000X0.600000X-0.725000X0.600000X-0.725000X-0.600000X0*%
%ADD33RoundRect,0.250000X-0.750000X0.600000X-0.750000X-0.600000X0.750000X-0.600000X0.750000X0.600000X0*%
%ADD34O,2.000000X1.700000*%
G04 APERTURE END LIST*
D10*
%TO.C,D2*%
X65151600Y-83320800D03*
D11*
X54991600Y-83320800D03*
%TD*%
D12*
%TO.C,R5*%
X56621200Y-35027334D03*
D13*
X59161200Y-35027334D03*
%TD*%
D14*
%TO.C,SW1*%
X85250000Y-68750000D03*
X91750000Y-68750000D03*
X85250000Y-73250000D03*
X91750000Y-73250000D03*
%TD*%
D15*
%TO.C,J3*%
X73000000Y-57845833D03*
D16*
X70500000Y-57845833D03*
X68000000Y-57845833D03*
X65500000Y-57845833D03*
%TD*%
D12*
%TO.C,R7*%
X56621200Y-58360666D03*
D13*
X59161200Y-58360666D03*
%TD*%
D17*
%TO.C,J8*%
X50470400Y-32487334D03*
D18*
X50470400Y-34987334D03*
X50470400Y-37487334D03*
%TD*%
D17*
%TO.C,J9*%
X50470400Y-44154000D03*
D18*
X50470400Y-46654000D03*
X50470400Y-49154000D03*
%TD*%
D19*
%TO.C,C4*%
X101000000Y-73500000D03*
D20*
X101000000Y-76000000D03*
%TD*%
D12*
%TO.C,R6*%
X56871200Y-46694000D03*
D13*
X59411200Y-46694000D03*
%TD*%
D21*
%TO.C,H1*%
X119964800Y-22970400D03*
%TD*%
D22*
%TO.C,U1*%
X75591000Y-87207000D03*
D23*
X78131000Y-87207000D03*
X80671000Y-87207000D03*
%TD*%
D17*
%TO.C,J10*%
X50470400Y-55820666D03*
D18*
X50470400Y-58320666D03*
X50470400Y-60820666D03*
%TD*%
D24*
%TO.C,J7*%
X109288900Y-32368400D03*
D25*
X111828900Y-32368400D03*
X109288900Y-34908400D03*
X111828900Y-34908400D03*
X109288900Y-37448400D03*
X111828900Y-37448400D03*
X109288900Y-39988400D03*
X111828900Y-39988400D03*
X109288900Y-42528400D03*
X111828900Y-42528400D03*
%TD*%
D12*
%TO.C,R2*%
X91212000Y-46240000D03*
D13*
X91212000Y-41160000D03*
%TD*%
D21*
%TO.C,H4*%
X119964800Y-93684000D03*
%TD*%
D26*
%TO.C,J16*%
X48235200Y-86876800D03*
D27*
X48235200Y-81796800D03*
%TD*%
D19*
%TO.C,A1*%
X96000000Y-61500000D03*
D28*
X96000000Y-58960000D03*
X96000000Y-56420000D03*
X96000000Y-53880000D03*
X96000000Y-51340000D03*
X96000000Y-48800000D03*
X96000000Y-46260000D03*
X96000000Y-43720000D03*
X96000000Y-41180000D03*
X96000000Y-38640000D03*
X96000000Y-36100000D03*
X96000000Y-33560000D03*
X96000000Y-31020000D03*
X96000000Y-28480000D03*
X96000000Y-25940000D03*
X80760000Y-25940000D03*
X80760000Y-28480000D03*
X80760000Y-31020000D03*
X80760000Y-33560000D03*
X80760000Y-36100000D03*
X80760000Y-38640000D03*
X80760000Y-41180000D03*
X80760000Y-43720000D03*
X80760000Y-46260000D03*
X80760000Y-48800000D03*
X80760000Y-51340000D03*
X80760000Y-53880000D03*
X80760000Y-56420000D03*
X80760000Y-58960000D03*
X80760000Y-61500000D03*
%TD*%
D29*
%TO.C,J17*%
X63000000Y-74775000D03*
D16*
X65500000Y-74775000D03*
X68000000Y-74775000D03*
X70500000Y-74775000D03*
X73000000Y-74775000D03*
%TD*%
D15*
%TO.C,J2*%
X73000000Y-48856250D03*
D16*
X70500000Y-48856250D03*
X68000000Y-48856250D03*
X65500000Y-48856250D03*
%TD*%
D20*
%TO.C,C1*%
X85000000Y-55000000D03*
X85000000Y-60000000D03*
%TD*%
D21*
%TO.C,H2*%
X48082800Y-23072000D03*
%TD*%
%TO.C,H3*%
X48032000Y-93836400D03*
%TD*%
D30*
%TO.C,D1*%
X96673000Y-95848000D03*
D31*
X96673000Y-93308000D03*
%TD*%
D20*
%TO.C,C2*%
X67463000Y-87120000D03*
X67463000Y-92120000D03*
%TD*%
D32*
%TO.C,J15*%
X109975000Y-78500000D03*
D18*
X109975000Y-76000000D03*
X109975000Y-73500000D03*
%TD*%
D33*
%TO.C,J13*%
X120388200Y-53013200D03*
D34*
X120388200Y-55513200D03*
%TD*%
D12*
%TO.C,R3*%
X87275000Y-48940000D03*
D13*
X87275000Y-43860000D03*
%TD*%
D15*
%TO.C,J4*%
X73000000Y-66835416D03*
D16*
X70500000Y-66835416D03*
X68000000Y-66835416D03*
X65500000Y-66835416D03*
%TD*%
D17*
%TO.C,J11*%
X50470400Y-67487334D03*
D18*
X50470400Y-69987334D03*
X50470400Y-72487334D03*
%TD*%
D20*
%TO.C,C6*%
X88824400Y-87120000D03*
X88824400Y-92120000D03*
%TD*%
D12*
%TO.C,R1*%
X91821600Y-87080000D03*
D13*
X91821600Y-92160000D03*
%TD*%
D20*
%TO.C,C5*%
X85497000Y-87120000D03*
X85497000Y-92120000D03*
%TD*%
D32*
%TO.C,J14*%
X119411000Y-78516000D03*
D18*
X119411000Y-76016000D03*
X119411000Y-73516000D03*
%TD*%
D12*
%TO.C,R4*%
X101250000Y-70044887D03*
D13*
X101250000Y-64964887D03*
%TD*%
D15*
%TO.C,J1*%
X73000000Y-39866667D03*
D16*
X70500000Y-39866667D03*
X68000000Y-39866667D03*
X65500000Y-39866667D03*
%TD*%
D33*
%TO.C,J12*%
X110960200Y-53000200D03*
D34*
X110960200Y-55500200D03*
%TD*%
D20*
%TO.C,C3*%
X70765000Y-87120000D03*
X70765000Y-92120000D03*
%TD*%
D29*
%TO.C,J6*%
X62000000Y-23500000D03*
D16*
X64500000Y-23500000D03*
X67000000Y-23500000D03*
X69500000Y-23500000D03*
X72000000Y-23500000D03*
X74500000Y-23500000D03*
%TD*%
D12*
%TO.C,R8*%
X56621200Y-70027334D03*
D13*
X59161200Y-70027334D03*
%TD*%
D29*
%TO.C,J5*%
X98578000Y-84794000D03*
D16*
X101078000Y-84794000D03*
X103578000Y-84794000D03*
X106078000Y-84794000D03*
%TD*%
D15*
%TO.C,J18*%
X120200000Y-65200000D03*
D16*
X117700000Y-65200000D03*
X115200000Y-65200000D03*
X112700000Y-65200000D03*
X110200000Y-65200000D03*
X107700000Y-65200000D03*
%TD*%
M02*
