%TF.GenerationSoftware,KiCad,Pcbnew,(6.0.8)*%
%TF.CreationDate,2022-11-21T21:43:54+01:00*%
%TF.ProjectId,WeatherStation_ArduinoNano_Shield,57656174-6865-4725-9374-6174696f6e5f,rev?*%
%TF.SameCoordinates,Original*%
%TF.FileFunction,Drillmap*%
%TF.FilePolarity,Positive*%
%FSLAX45Y45*%
G04 Gerber Fmt 4.5, Leading zero omitted, Abs format (unit mm)*
G04 Created by KiCad (PCBNEW (6.0.8)) date 2022-11-21 21:43:54*
%MOMM*%
%LPD*%
G01*
G04 APERTURE LIST*
%ADD10C,0.100000*%
%ADD11C,0.200000*%
G04 APERTURE END LIST*
D10*
X4316240Y-9666240D02*
G75*
G03*
X4516240Y-9866240I200000J0D01*
G01*
X12287640Y-9864775D02*
G75*
G03*
X12487640Y-9663357I-1430J201425D01*
G01*
X4319440Y-2036901D02*
X4316240Y-9666240D01*
X12487640Y-9663357D02*
X12490840Y-2035439D01*
X12490841Y-2035439D02*
G75*
G03*
X12290840Y-1835439I-200001J-1D01*
G01*
X4519440Y-1836900D02*
G75*
G03*
X4319440Y-2036901I0J-200000D01*
G01*
X12290840Y-1835439D02*
X4519440Y-1836901D01*
X4516240Y-9866240D02*
X12287640Y-9864778D01*
D11*
X4568859Y-10181716D02*
X4568859Y-9981716D01*
X4616478Y-9981716D01*
X4645050Y-9991240D01*
X4664097Y-10010288D01*
X4673621Y-10029335D01*
X4683145Y-10067430D01*
X4683145Y-10096002D01*
X4673621Y-10134097D01*
X4664097Y-10153145D01*
X4645050Y-10172192D01*
X4616478Y-10181716D01*
X4568859Y-10181716D01*
X4768859Y-10181716D02*
X4768859Y-10048383D01*
X4768859Y-10086478D02*
X4778383Y-10067430D01*
X4787907Y-10057907D01*
X4806954Y-10048383D01*
X4826002Y-10048383D01*
X4892669Y-10181716D02*
X4892669Y-10048383D01*
X4892669Y-9981716D02*
X4883145Y-9991240D01*
X4892669Y-10000764D01*
X4902192Y-9991240D01*
X4892669Y-9981716D01*
X4892669Y-10000764D01*
X5016478Y-10181716D02*
X4997430Y-10172192D01*
X4987907Y-10153145D01*
X4987907Y-9981716D01*
X5121240Y-10181716D02*
X5102192Y-10172192D01*
X5092669Y-10153145D01*
X5092669Y-9981716D01*
X5349811Y-10181716D02*
X5349811Y-9981716D01*
X5416478Y-10124573D01*
X5483145Y-9981716D01*
X5483145Y-10181716D01*
X5664097Y-10181716D02*
X5664097Y-10076954D01*
X5654573Y-10057907D01*
X5635526Y-10048383D01*
X5597430Y-10048383D01*
X5578383Y-10057907D01*
X5664097Y-10172192D02*
X5645049Y-10181716D01*
X5597430Y-10181716D01*
X5578383Y-10172192D01*
X5568859Y-10153145D01*
X5568859Y-10134097D01*
X5578383Y-10115050D01*
X5597430Y-10105526D01*
X5645049Y-10105526D01*
X5664097Y-10096002D01*
X5759335Y-10048383D02*
X5759335Y-10248383D01*
X5759335Y-10057907D02*
X5778383Y-10048383D01*
X5816478Y-10048383D01*
X5835526Y-10057907D01*
X5845049Y-10067430D01*
X5854573Y-10086478D01*
X5854573Y-10143621D01*
X5845049Y-10162669D01*
X5835526Y-10172192D01*
X5816478Y-10181716D01*
X5778383Y-10181716D01*
X5759335Y-10172192D01*
X5940288Y-10162669D02*
X5949811Y-10172192D01*
X5940288Y-10181716D01*
X5930764Y-10172192D01*
X5940288Y-10162669D01*
X5940288Y-10181716D01*
X5940288Y-10057907D02*
X5949811Y-10067430D01*
X5940288Y-10076954D01*
X5930764Y-10067430D01*
X5940288Y-10057907D01*
X5940288Y-10076954D01*
M02*
